<?xml version="1.0" encoding="UTF-8" standalone="no"?><!DOCTYPE svg PUBLIC "-//W3C//DTD SVG 1.1//EN" "http://www.w3.org/Graphics/SVG/1.1/DTD/svg11.dtd"><svg width="100%" height="100%" viewBox="0 0 276 306" version="1.1" xmlns="http://www.w3.org/2000/svg" xmlns:xlink="http://www.w3.org/1999/xlink" xml:space="preserve" xmlns:serif="http://www.serif.com/" style="fill-rule:evenodd;clip-rule:evenodd;stroke-linejoin:round;stroke-miterlimit:2;"><rect id="Plan-de-travail5" serif:id="Plan de travail5" x="0.128" y="0" width="274.758" height="305.863" style="fill:none;"/><g><path d="M254.338,218.317c-0.808,2.213 -6.196,5.702 -8.443,6.775c-1.924,0.928 -10.647,4.068 -12.376,4.068l-18.716,0l3.848,-5.243c1.038,-1.422 2.255,-3.03 3.225,-4.63c0.315,-0.536 0.613,-1.064 0.869,-1.592c0.025,-0.059 0.059,-0.128 0.093,-0.195c0.093,-0.213 0.196,-0.468 0.307,-0.758c0.144,-0.392 0.306,-0.843 0.468,-1.328c0.118,-0.357 0.246,-0.74 0.374,-1.132c0.051,-0.153 0.102,-0.314 0.153,-0.485c0.068,-0.204 0.128,-0.4 0.196,-0.604c0.111,-0.324 0.212,-0.655 0.323,-0.979c0.085,-0.272 0.171,-0.544 0.264,-0.809c0.213,-0.672 0.425,-1.302 0.63,-1.864c0.077,-0.221 0.153,-0.425 0.229,-0.621l0,-0.008c0.069,-0.171 0.128,-0.323 0.188,-0.468c0.187,-0.434 0.34,-0.741 0.468,-0.877c0.511,-0.545 10.41,-4.111 11.975,-4.639c3.09,-1.046 13.755,-4.8 16.189,-2.366c0.111,0.111 0.204,0.221 0.29,0.341c0.059,0.084 0.11,0.178 0.153,0.272c0.043,0.094 0.085,0.187 0.11,0.281c0.026,0.076 0.043,0.153 0.051,0.23c0.086,0.468 0,0.979 -0.221,1.498c-0.034,0.076 -0.068,0.153 -0.102,0.221c-0.119,0.246 -0.264,0.494 -0.434,0.749c-0.06,0.085 -0.111,0.162 -0.17,0.247c-0.06,0.084 -0.12,0.162 -0.187,0.246c-0.128,0.162 -0.264,0.324 -0.409,0.486c-0.068,0.076 -0.145,0.161 -0.213,0.238c-0.094,0.11 -0.195,0.213 -0.306,0.323c-0.306,0.324 -0.647,0.638 -0.996,0.945c-0.289,0.255 -0.579,0.51 -0.877,0.758c-1.209,0.978 -2.46,1.847 -3.405,2.451c-0.186,0.119 -0.357,0.23 -0.518,0.323c-0.247,0.162 -0.46,0.29 -0.622,0.383c-4.536,2.673 -9.558,3.081 -13.065,5.124c-0.646,0.375 -1.14,0.851 -1.344,1.32c-0.187,0.408 -0.145,0.808 0.213,1.114c0.221,0.196 0.569,0.367 1.055,0.477c3.753,0.885 13.363,-2.256 17.797,-2.673c1.132,-0.101 2.068,-0.204 2.639,-0.008c0.068,0.025 0.135,0.051 0.196,0.094c0.084,0.042 0.152,0.102 0.221,0.17c0.034,0.034 0.059,0.085 0.085,0.136c0.05,0.085 0.084,0.179 0.101,0.298c0.018,0.077 0.027,0.161 0.027,0.255c-0,0.358 -0.103,0.834 -0.333,1.456m-40.335,5.574c-0.596,0.69 -1.217,1.354 -1.864,1.975c-0.69,0.672 -1.413,1.302 -2.162,1.89c-0.375,0.289 -0.757,0.579 -1.148,0.851c-3.677,2.579 -7.474,2.503 -9.721,6.715c-0.196,0.366 -0.383,0.741 -0.57,1.133c-0.188,0.383 -0.366,0.782 -0.553,1.191c-0.341,0.774 -0.673,1.566 -1.021,2.366c-0.111,0.264 -0.23,0.537 -0.341,0.8c-0.093,0.213 -0.187,0.426 -0.281,0.638c-0.144,0.324 -0.289,0.647 -0.443,0.971c-0.246,0.536 -0.502,1.064 -0.774,1.575c-0.162,0.314 -0.332,0.621 -0.502,0.927c-0.171,0.307 -0.35,0.604 -0.536,0.893c-0.494,0.775 -1.03,1.516 -1.634,2.18c-0.12,0.153 -0.265,0.297 -0.409,0.442c-0.332,0.341 -0.681,0.655 -1.055,0.945c-0.162,0.137 -0.324,0.255 -0.494,0.366c-0.017,0.017 -0.034,0.034 -0.051,0.043c-0.145,0.101 -0.29,0.196 -0.443,0.289c-0.426,0.263 -0.877,0.502 -1.353,0.707c-0.179,0.076 -0.366,0.153 -0.562,0.212c-0.068,0.026 -0.136,0.051 -0.204,0.077c-0.171,0.059 -0.349,0.111 -0.528,0.162c-0.204,0.05 -0.417,0.101 -0.638,0.145c-0.119,0.025 -0.239,0.05 -0.358,0.067c-0.187,0.034 -0.391,0.068 -0.587,0.094c-1.464,0.178 -2.843,0.212 -4.162,0.085c-0.136,-0.017 -0.273,-0.025 -0.4,-0.042c-0.128,-0.009 -0.264,-0.026 -0.391,-0.052c-0.213,-0.025 -0.434,-0.059 -0.639,-0.102c-0.077,-0.008 -0.145,-0.025 -0.212,-0.042c-0.179,-0.025 -0.35,-0.069 -0.528,-0.111c-0.723,-0.17 -1.422,-0.383 -2.102,-0.655c-0.137,-0.051 -0.273,-0.111 -0.409,-0.171c-0.179,-0.076 -0.358,-0.153 -0.528,-0.238c-0.085,-0.042 -0.17,-0.085 -0.255,-0.128c-0.094,-0.042 -0.188,-0.093 -0.272,-0.144c-0.154,-0.068 -0.299,-0.153 -0.444,-0.239c-0.356,-0.196 -0.697,-0.408 -1.038,-0.647c-0.187,-0.127 -0.382,-0.255 -0.57,-0.4c-0.366,-0.263 -0.732,-0.561 -1.089,-0.868c-0.077,-0.067 -0.153,-0.136 -0.23,-0.204c-0.204,-0.179 -0.409,-0.366 -0.605,-0.562c-0.229,-0.213 -0.459,-0.442 -0.68,-0.689c-0.221,-0.238 -0.443,-0.476 -0.664,-0.732c-1.464,-1.685 -3.805,-6.077 -5.686,-6.911c-0.791,-0.349 -4.188,-0.8 -5.149,-0.817c-5.353,-0.06 -10.375,0.851 -15.925,0.025c-1.855,-0.272 -4.179,-0.851 -5.856,-1.676c-0.272,-0.137 -0.638,0.051 -0.408,-0.554c0.153,-0.4 0.366,-0.834 0.629,-1.293c0.248,-0.443 0.537,-0.911 0.869,-1.405c0.417,-0.612 0.877,-1.268 1.37,-1.924c0.094,-0.127 0.187,-0.263 0.298,-0.4c0.315,-0.425 0.647,-0.851 0.97,-1.276c0.162,-0.213 0.324,-0.417 0.486,-0.63c0.638,-0.834 1.276,-1.66 1.864,-2.443c0.161,-0.221 0.314,-0.434 0.467,-0.646c0.46,-0.63 0.868,-1.226 1.201,-1.771c0.025,-0.042 0.051,-0.085 0.085,-0.136c0.093,-0.162 0.204,-0.366 0.332,-0.604c0.102,-0.213 0.229,-0.452 0.366,-0.707c0.263,-0.519 0.562,-1.132 0.885,-1.796c0.238,-0.502 0.494,-1.03 0.766,-1.574c0.17,-0.358 0.349,-0.732 0.536,-1.099c1.166,-2.382 2.375,-4.842 3.132,-6.093c0.034,-0.06 0.068,-0.111 0.102,-0.162c0.238,-0.4 0.426,-0.647 0.537,-0.681c1.497,-0.519 6.052,0.962 7.924,0.707c1.872,2.519 3.856,3.795 6.868,4.672c2.503,0.732 5.235,1.064 8.103,1.064c0.417,0 0.843,-0.008 1.268,-0.025c0.383,-0.009 0.775,-0.026 1.175,-0.051c0.034,-0.009 0.068,-0.009 0.102,-0.009c0.324,-0.026 0.647,-0.051 0.97,-0.077c1.022,-0.085 2.06,-0.221 3.107,-0.391c0.383,-0.06 0.766,-0.127 1.149,-0.196c0.468,-0.076 0.927,-0.17 1.396,-0.272c0.426,-0.094 0.851,-0.188 1.285,-0.289c0.443,-0.103 0.893,-0.222 1.336,-0.341c0.383,-0.103 0.775,-0.204 1.158,-0.315c0.953,-0.272 1.906,-0.57 2.86,-0.902c0.357,-0.12 0.715,-0.247 1.072,-0.375c0.69,-0.246 1.379,-0.51 2.06,-0.783c0.34,-0.136 0.681,-0.281 1.021,-0.425c0.332,-0.136 0.656,-0.273 0.979,-0.417c0.059,-0.017 0.119,-0.043 0.179,-0.077c0.29,-0.128 0.587,-0.264 0.876,-0.4c0.332,-0.153 0.673,-0.307 1.005,-0.469c0.664,-0.323 1.328,-0.655 1.983,-0.995c0.358,-0.179 0.706,-0.374 1.064,-0.562c0.068,-0.034 0.128,-0.067 0.195,-0.111c0.418,-0.229 0.826,-0.459 1.243,-0.697c0.409,-0.238 0.817,-0.477 1.217,-0.724c0.366,-0.221 0.724,-0.443 1.081,-0.672c0.111,-0.068 0.221,-0.137 0.324,-0.205c0.459,-0.289 0.919,-0.595 1.362,-0.893c0.008,0 0.008,-0.008 0.008,-0.008c0.494,-0.341 0.978,-0.682 1.456,-1.022c0.238,-0.17 0.476,-0.349 0.714,-0.528c0.324,-0.238 0.647,-0.485 0.962,-0.731c0.723,-0.562 1.43,-1.141 2.111,-1.729c0.298,-0.263 0.587,-0.518 0.877,-0.783c0.331,-0.297 0.655,-0.596 0.97,-0.902c0.315,-0.306 0.629,-0.612 0.936,-0.919c0.783,-0.791 1.523,-1.6 2.222,-2.417c0.459,-0.545 0.893,-1.09 1.302,-1.634c0.213,-0.29 0.425,-0.57 0.63,-0.86c0.221,-0.315 0.434,-0.639 0.646,-0.953c0.205,-0.324 0.409,-0.638 0.605,-0.962c0.195,-0.324 0.383,-0.647 0.553,-0.971c0.17,-0.331 0.341,-0.655 0.503,-0.978c0.042,-0.094 0.093,-0.204 0.152,-0.323c0.034,-0.06 0.06,-0.128 0.086,-0.205c0.051,-0.136 0.119,-0.289 0.179,-0.451c0.042,-0.085 0.068,-0.17 0.101,-0.264c0.026,-0.085 0.06,-0.17 0.094,-0.264c0.034,-0.093 0.068,-0.187 0.094,-0.28c0.076,-0.222 0.145,-0.451 0.204,-0.681c0.187,-0.664 0.341,-1.371 0.383,-2c0.009,-0.137 0.017,-0.265 0.017,-0.383c0,-0.137 0,-0.273 -0.017,-0.392c-0.008,-0.119 -0.025,-0.23 -0.051,-0.341c-0.06,-0.272 -0.153,-0.502 -0.298,-0.68c-0.051,-0.06 -0.102,-0.111 -0.162,-0.154c-0.017,-0.017 -0.025,-0.025 -0.042,-0.034c-0.051,-0.034 -0.102,-0.068 -0.162,-0.093c-0.085,-0.043 -0.187,-0.077 -0.298,-0.094c-0.085,-0.017 -0.179,-0.025 -0.273,-0.025l-0.007,-0c-0.043,-0 -0.094,0.008 -0.137,0.025c-0.042,0.008 -0.094,0.025 -0.136,0.042c-0.026,0.017 -0.043,0.026 -0.068,0.043c-0.059,0.034 -0.128,0.077 -0.187,0.128c-0.196,0.145 -0.409,0.366 -0.63,0.646c-0.077,0.095 -0.153,0.188 -0.221,0.29c-0.077,0.094 -0.145,0.196 -0.213,0.298c-0.052,0.077 -0.103,0.153 -0.162,0.23c-0.025,0.043 -0.051,0.085 -0.086,0.128c-0.127,0.204 -0.263,0.425 -0.408,0.655c-0.204,0.34 -0.417,0.698 -0.621,1.072c-0.077,0.136 -0.153,0.281 -0.239,0.425c-0.144,0.265 -0.289,0.529 -0.425,0.792c-0.145,0.265 -0.281,0.528 -0.417,0.783c-0.137,0.264 -0.264,0.52 -0.4,0.767c-0.323,0.638 -0.63,1.225 -0.894,1.71c-0.111,0.196 -0.204,0.366 -0.298,0.52c-0.093,0.161 -0.178,0.306 -0.255,0.434c-0.042,0.059 -0.076,0.11 -0.11,0.161c-9.712,13.721 -29.773,20.98 -46.208,19.525c-0.145,-0.008 -0.316,-0.034 -0.511,-0.059c-0.068,-0.009 -0.136,-0.017 -0.205,-0.034c-0.519,-0.077 -1.123,-0.213 -1.574,-0.383c-0.085,-0.034 -0.17,-0.069 -0.247,-0.111c-0.085,-0.034 -0.153,-0.077 -0.213,-0.119c-0.059,-0.043 -0.11,-0.086 -0.153,-0.128c-0.085,-0.085 -0.128,-0.187 -0.085,-0.289c-0,-0.026 0.017,-0.052 0.042,-0.086c0.035,-0.067 0.111,-0.135 0.222,-0.212c0.026,-0.026 0.06,-0.043 0.093,-0.068c0.034,-0.017 0.077,-0.043 0.12,-0.059c0.051,-0.035 0.119,-0.061 0.187,-0.095c0.068,-0.033 0.144,-0.059 0.222,-0.093c1.872,-0.741 4.502,-0.8 6.485,-1.208c1.446,-0.299 2.715,-1.056 4.171,-1.243c0.025,-0.035 0.051,-0.06 0.076,-0.086c0.068,-0.084 0.145,-0.178 0.221,-0.263c0.094,-0.12 0.196,-0.238 0.298,-0.358c0.102,-0.119 0.196,-0.238 0.29,-0.358c0.067,-0.093 0.136,-0.186 0.204,-0.28c0.068,-0.093 0.127,-0.188 0.187,-0.281c0.076,-0.128 0.145,-0.256 0.213,-0.391c0.034,-0.069 0.059,-0.137 0.085,-0.205c0.187,-0.494 0.229,-1.03 0.025,-1.642l-0.714,-0.341c-10.835,2.536 -25.288,5.89 -34.114,-2.784c4.724,0.307 10.503,1.32 15.184,0.665c0.196,-0.026 0.383,-0.069 0.553,-0.111c0.256,-0.068 0.477,-0.153 0.664,-0.255c0.069,-0.034 0.128,-0.068 0.179,-0.103c0.119,-0.076 0.221,-0.152 0.307,-0.238c0.221,-0.204 0.366,-0.442 0.442,-0.698c0.034,-0.102 0.051,-0.204 0.06,-0.306c-0,-0.051 0.008,-0.111 0.008,-0.161c0,-0.086 -0.008,-0.179 -0.025,-0.273c-0.009,-0.043 -0.009,-0.085 -0.017,-0.119c-0.017,-0.077 -0.043,-0.153 -0.068,-0.23c-0.017,-0.06 -0.034,-0.111 -0.06,-0.162c-0.034,-0.077 -0.068,-0.153 -0.111,-0.229c-0.059,-0.111 -0.127,-0.213 -0.204,-0.316c-0.094,-0.111 -0.187,-0.221 -0.298,-0.323c-0.093,-0.094 -0.195,-0.17 -0.298,-0.239c-0.042,-0.033 -0.084,-0.059 -0.128,-0.084c-0.067,-0.043 -0.135,-0.077 -0.204,-0.111c-0.059,-0.034 -0.11,-0.051 -0.169,-0.077c-0.179,-0.076 -0.375,-0.128 -0.571,-0.153c-3.932,-0.493 -8.912,0.392 -12.98,0.034c-3.651,-0.315 -13.473,-4.493 -11.907,-9.482c0.613,-0.851 2.672,-0.008 3.532,0.026c4.877,0.17 9.805,0.111 14.665,0.715c1.038,-0.451 3.957,-2.537 3.192,-3.464c-0.008,-0.008 -0.017,-0.017 -0.025,-0.025c-0.027,-0.034 -0.052,-0.06 -0.077,-0.069c-0.026,-0.025 -0.051,-0.042 -0.085,-0.068c-0.188,-0.119 -0.477,-0.213 -0.869,-0.255c-3.396,-0.392 -7.081,0.553 -10.528,0.383c-2.852,-0.136 -12.792,-1.575 -9.601,-6.128c0.068,-0.103 0.162,-0.204 0.264,-0.315c0.043,-0.06 0.102,-0.111 0.161,-0.162c0.111,-0.11 0.239,-0.221 0.384,-0.332c0.067,-0.06 0.144,-0.119 0.221,-0.17c0.077,-0.059 0.153,-0.119 0.238,-0.17c0.17,-0.111 0.349,-0.23 0.536,-0.35c0.171,-0.11 0.341,-0.212 0.528,-0.314c1.694,-0.979 4.086,-2.043 6.698,-3.098c0.282,-0.111 0.562,-0.221 0.843,-0.332c0.162,-0.068 0.315,-0.128 0.477,-0.188c1.711,-0.68 3.49,-1.344 5.2,-1.983c0.324,-0.119 0.638,-0.238 0.945,-0.348c0.323,-0.12 0.638,-0.239 0.961,-0.358c0.299,-0.111 0.596,-0.221 0.886,-0.332c1.413,-0.519 2.724,-1.013 3.864,-1.456c0.247,-0.101 0.485,-0.195 0.715,-0.289c0.459,-0.187 0.885,-0.357 1.26,-0.528c0.187,-0.076 0.366,-0.162 0.536,-0.238c0.085,-0.034 0.162,-0.076 0.238,-0.11c1.166,-0.562 2.392,-1.2 3.66,-1.907c0.255,-0.136 0.502,-0.281 0.758,-0.426c0.596,-0.34 1.209,-0.689 1.821,-1.064c0.919,-0.553 1.847,-1.132 2.783,-1.745c0.562,-0.357 1.124,-0.731 1.694,-1.123c0.536,-0.357 1.064,-0.732 1.6,-1.106c3.03,-2.137 6.026,-4.511 8.767,-7.005c0.246,-0.222 0.494,-0.443 0.732,-0.673c1.43,-1.327 2.774,-2.689 4.008,-4.06c0.247,-0.28 0.495,-0.562 0.733,-0.834c0.238,-0.28 0.476,-0.562 0.706,-0.842c0.23,-0.281 0.46,-0.562 0.681,-0.843c0.434,-0.562 0.86,-1.115 1.251,-1.676c0.205,-0.282 0.4,-0.562 0.579,-0.843c0.417,-0.639 0.808,-1.277 1.166,-1.915c0.077,-0.128 0.136,-0.264 0.204,-0.417c0.043,-0.111 0.086,-0.23 0.12,-0.349c0.042,-0.119 0.076,-0.239 0.093,-0.366c0.051,-0.247 0.085,-0.503 0.085,-0.741c0,-0.383 -0.077,-0.732 -0.264,-0.97c-0.034,-0.051 -0.076,-0.102 -0.119,-0.144c-0.111,-0.094 -0.246,-0.171 -0.417,-0.205c-0.085,-0.017 -0.17,-0.025 -0.273,-0.025c-0.051,-0 -0.11,-0 -0.169,0.008c-0.137,0.017 -0.273,0.051 -0.409,0.102c-0.145,0.051 -0.29,0.12 -0.435,0.204c-1.106,0.647 -2.348,2.197 -3.471,3.72c-0.145,0.196 -0.282,0.391 -0.418,0.587l-0.009,0.009c-0.144,0.195 -0.28,0.391 -0.408,0.578c-0.017,0.034 -0.043,0.068 -0.077,0.102c-0.484,0.682 -0.918,1.303 -1.276,1.745c-0.017,0.026 -0.034,0.051 -0.059,0.077c-0.052,0.06 -0.103,0.119 -0.145,0.17c-0.239,0.273 -0.485,0.554 -0.733,0.834c-0.246,0.282 -0.51,0.562 -0.783,0.843c-0.272,0.281 -0.553,0.57 -0.834,0.851c-0.4,0.408 -0.808,0.818 -1.226,1.208c-0.365,0.35 -0.74,0.699 -1.114,1.048c-0.383,0.348 -0.775,0.698 -1.166,1.038c-0.451,0.4 -0.902,0.783 -1.353,1.157c-0.392,0.333 -0.792,0.647 -1.192,0.962c-0.886,0.706 -1.779,1.379 -2.673,2.009c-0.298,0.213 -0.587,0.417 -0.885,0.613c-0.332,0.23 -0.664,0.451 -0.995,0.655c-0.333,0.213 -0.656,0.417 -0.979,0.605c-0.324,0.195 -0.647,0.383 -0.962,0.561c-0.477,0.273 -2.749,1.626 -3.115,1.252l-0.009,-0c-0.042,-1.209 -0.042,-2.426 -0.017,-3.652c0.009,-0.885 0.034,-1.788 0.077,-2.681c0.025,-0.57 0.05,-1.141 0.076,-1.71c0.043,-0.699 0.077,-1.396 0.119,-2.095c0.043,-0.596 0.077,-1.2 0.12,-1.795c0.025,-0.503 0.059,-1.005 0.093,-1.507c0.204,-3.056 0.4,-6.111 0.443,-9.132c0.017,-0.766 0.017,-1.533 -0,-2.29c0.008,-0.23 -0,-0.46 -0.009,-0.69c-0.008,-0.315 -0.017,-0.638 -0.034,-0.953c-0.025,-0.91 -0.076,-1.813 -0.153,-2.707c-0.043,-0.467 -0.102,-1.004 -0.205,-1.54c-0.033,-0.179 -0.076,-0.357 -0.118,-0.536c-0.069,-0.299 -0.162,-0.579 -0.273,-0.843c-0.059,-0.145 -0.136,-0.281 -0.204,-0.417c-0.026,-0.06 -0.06,-0.111 -0.085,-0.162c-0.043,-0.067 -0.085,-0.136 -0.137,-0.204c-0.067,-0.093 -0.135,-0.179 -0.212,-0.264c-0.153,-0.161 -0.315,-0.306 -0.502,-0.417c-0.187,-0.111 -0.4,-0.195 -0.63,-0.247c-10.954,-1.702 -22.325,-2.434 -32.896,-5.932c-0.664,-0.213 -2.809,-0.715 -3.337,-1.557c-0.187,-0.281 -0.178,-0.605 0.119,-0.963l0.009,0c0.06,-0.076 0.494,-0.229 1.115,-0.433c0.068,-0.026 0.145,-0.051 0.221,-0.077l0.009,0c0.153,-0.051 0.306,-0.102 0.468,-0.145c0.17,-0.059 0.34,-0.119 0.528,-0.17c0.238,-0.076 0.476,-0.153 0.731,-0.23c0.103,-0.034 0.204,-0.059 0.307,-0.093c0.264,-0.086 0.536,-0.17 0.8,-0.248c0.085,-0.025 0.17,-0.059 0.255,-0.084c0.179,-0.06 0.341,-0.111 0.502,-0.162c0.639,-0.204 1.166,-0.392 1.465,-0.527c0.501,-0.231 1.013,-0.478 1.531,-0.758c0.307,-0.162 0.613,-0.332 0.92,-0.52c1.983,-1.157 4.025,-2.655 5.804,-4.391c0.315,-0.315 0.613,-0.622 0.911,-0.945c0.451,-0.485 0.877,-0.988 1.269,-1.506c0.118,-0.162 0.238,-0.333 0.356,-0.495c0.128,-0.178 0.248,-0.348 0.358,-0.527c0.809,-1.225 1.422,-2.519 1.762,-3.847c0.094,-0.383 0.171,-0.766 0.221,-1.149c0.136,-1.013 0.077,-2.179 -0.127,-3.421c-0.051,-0.324 -0.119,-0.639 -0.188,-0.971c-0.042,-0.162 -0.076,-0.324 -0.119,-0.493c-0.043,-0.162 -0.085,-0.333 -0.127,-0.503c-0.171,-0.621 -0.367,-1.259 -0.588,-1.906c-0.076,-0.221 -0.162,-0.443 -0.247,-0.664c-0.391,-1.056 -0.842,-2.12 -1.345,-3.175c-0.076,-0.179 -0.161,-0.358 -0.255,-0.528c-0.17,-0.348 -0.349,-0.698 -0.527,-1.047c-0.086,-0.179 -0.179,-0.348 -0.273,-0.519c-0.281,-0.511 -0.562,-1.021 -0.859,-1.524c-0.145,-0.255 -0.289,-0.501 -0.443,-0.748c-0.145,-0.247 -0.298,-0.486 -0.451,-0.724c-0.102,-0.162 -0.204,-0.323 -0.307,-0.476c-0.246,-0.383 -0.501,-0.758 -0.757,-1.124c-0.111,-0.161 -0.23,-0.323 -0.349,-0.485c-0.111,-0.162 -0.221,-0.315 -0.34,-0.468c-0.222,-0.307 -0.451,-0.604 -0.681,-0.894c-0.307,-0.374 -0.613,-0.74 -0.911,-1.081c-0.298,-0.349 -0.596,-0.663 -0.894,-0.962c-0.298,-0.297 -0.579,-0.569 -0.859,-0.808c-5.558,-4.809 -13.269,-5.03 -20.095,-3.158l-0.009,0c-0.23,-0.876 0.238,-2.664 0.706,-4.536c0.664,-2.647 1.328,-5.473 0,-6.137c-2.8,-1.387 -2.987,3.77 -4.315,3.643c-0.553,-0.051 -4.596,-2.971 -5.601,-3.524c-4.774,-2.596 -10.017,-5.038 -15.626,-4.485c-0.154,0.365 -0.289,0.664 -0.417,0.953c-0.077,0.162 -0.145,0.315 -0.222,0.485c-0.084,0.196 -0.178,0.401 -0.263,0.639c-0.043,0.118 -0.094,0.238 -0.145,0.374c2.527,0.213 1.387,2.273 0.408,4.103c-0.144,0.263 -0.28,0.527 -0.408,0.774c-0.11,0.238 -0.213,0.468 -0.298,0.673c-0.034,0.076 -0.06,0.135 -0.077,0.204c-0.135,0.417 -0.246,0.851 -0.34,1.31c-0.043,0.23 -0.094,0.468 -0.128,0.706c-0.255,1.499 -0.349,3.184 -0.289,4.869c0.009,0.213 0.017,0.426 0.034,0.638c0,0.077 0.009,0.154 0.009,0.222c0.025,0.391 0.068,0.783 0.11,1.174c0.017,0.205 0.043,0.4 0.069,0.596c0.033,0.264 0.076,0.52 0.118,0.775c0.034,0.187 0.06,0.375 0.103,0.562c0.034,0.187 0.068,0.365 0.11,0.553c0.034,0.178 0.077,0.357 0.119,0.536c0.043,0.179 0.085,0.358 0.136,0.528c0.069,0.264 0.145,0.527 0.222,0.774c0.017,0.069 0.043,0.136 0.068,0.196c0.034,0.128 0.076,0.246 0.128,0.366c0.068,0.213 0.153,0.417 0.23,0.613c0.059,0.162 0.127,0.315 0.195,0.459c0.094,0.204 0.205,0.409 0.323,0.605c0.52,0.885 1.209,1.668 1.805,2.493c0.128,0.188 0.255,0.375 0.375,0.562c0.17,0.282 0.331,0.579 0.468,0.886l0.008,-0c0.128,0.042 0.272,0.11 0.434,0.186c0.425,0.188 0.954,0.452 1.464,0.767c0.145,0.085 0.29,0.17 0.425,0.263c0.137,0.086 0.273,0.179 0.401,0.282c0.127,0.093 0.247,0.195 0.357,0.289c0.042,0.034 0.086,0.068 0.128,0.111c0.059,0.051 0.119,0.11 0.17,0.17c0.017,0.017 0.034,0.034 0.051,0.051c0.043,0.051 0.085,0.102 0.128,0.153c0.06,0.077 0.11,0.153 0.144,0.239c0.043,0.067 0.069,0.127 0.086,0.195c0.204,0.706 -1.013,4.707 -1.371,4.962c-1.234,0.877 -5.498,-4.528 -7.847,-4.477c-2.017,0.034 -5.797,4.707 -8.214,4.852c-0.017,0.136 -0.042,0.263 -0.076,0.374c-0.026,0.102 -0.051,0.196 -0.085,0.281c-0.383,1.115 -1.166,1.302 -1.941,2.145c-0.11,0.128 -0.213,0.281 -0.306,0.451c-0.069,0.11 -0.128,0.23 -0.196,0.349c-0.145,0.264 -0.298,0.545 -0.494,0.783c-0.051,0.068 -0.11,0.128 -0.17,0.179c-0.068,0.059 -0.136,0.119 -0.205,0.162c-0.067,0.05 -0.144,0.093 -0.229,0.118c-0.043,0.026 -0.102,0.043 -0.153,0.06c-0.06,0.017 -0.119,0.034 -0.187,0.043c-0.238,0.042 -0.52,0.034 -0.852,-0.043l-0.008,0c-0.043,-0.468 -0.094,-0.936 -0.128,-1.404c-0.068,-0.724 -0.128,-1.455 -0.17,-2.179c-0.017,-0.213 -0.025,-0.434 -0.034,-0.655c-0.068,-1.498 -0.042,-2.997 0.162,-4.469c0.017,-0.136 0.034,-0.264 0.059,-0.4c0.017,-0.136 0.043,-0.272 0.068,-0.409c0.035,-0.212 0.077,-0.425 0.128,-0.638c0.042,-0.204 0.093,-0.417 0.153,-0.63c0.043,-0.162 0.085,-0.314 0.145,-0.468c0.008,-0.025 0.017,-0.05 0.026,-0.077c0.042,-0.169 0.102,-0.331 0.169,-0.493c0.061,-0.17 0.128,-0.341 0.196,-0.511c0.052,-0.153 0.12,-0.306 0.188,-0.451c0.016,-0.042 0.042,-0.085 0.059,-0.127c0.06,-0.137 0.119,-0.282 0.196,-0.417c0.315,-0.656 0.69,-1.303 1.09,-1.941c0.195,-0.315 0.408,-0.63 0.621,-0.945c0.204,-0.315 0.425,-0.63 0.647,-0.936c0.893,-1.234 1.847,-2.451 2.757,-3.669c0.324,-0.442 0.639,-0.884 0.954,-1.327c0.016,-0.018 0.033,-0.035 0.042,-0.06c0.153,-0.23 0.315,-0.459 0.469,-0.689c0.152,-0.238 0.297,-0.468 0.451,-0.707c0.016,-0.017 0.025,-0.042 0.033,-0.059c0.154,-0.256 0.306,-0.511 0.451,-0.767c0.026,-0.042 0.051,-0.076 0.068,-0.118c0.12,-0.222 0.231,-0.434 0.341,-0.656c0.128,-0.264 0.255,-0.528 0.366,-0.791c0.289,-0.673 0.545,-1.371 0.775,-2.085c0.221,-0.707 0.425,-1.439 0.604,-2.188c0.179,-0.741 0.332,-1.498 0.477,-2.255c0.187,-0.946 0.349,-1.907 0.501,-2.877c0.086,-0.486 0.162,-0.971 0.239,-1.456c0.188,-1.107 0.375,-2.204 0.596,-3.285c0.06,-0.341 0.136,-0.681 0.213,-1.013c0.204,-0.936 0.442,-1.864 0.723,-2.758c0.128,-0.417 0.264,-0.825 0.408,-1.234c0.316,-0.91 0.656,-1.805 1.03,-2.681c0.179,-0.425 0.366,-0.843 0.554,-1.26c0.51,-1.115 1.064,-2.204 1.651,-3.251c0.297,-0.536 0.604,-1.055 0.919,-1.566c0.315,-0.519 0.639,-1.03 0.979,-1.532c0.17,-0.247 0.34,-0.493 0.511,-0.741c0.17,-0.246 0.34,-0.493 0.527,-0.74c0.707,-0.979 1.447,-1.932 2.222,-2.851c0.383,-0.46 0.783,-0.911 1.191,-1.362c0.205,-0.221 0.409,-0.443 0.613,-0.664c0.409,-0.442 0.834,-0.876 1.26,-1.302c1.124,-1.115 2.289,-2.179 3.498,-3.2c0.417,-0.35 0.825,-0.69 1.251,-1.03c0.869,-0.69 1.762,-1.362 2.664,-1.992c0.23,-0.179 0.469,-0.341 0.707,-0.493c1.71,-1.192 3.489,-2.299 5.311,-3.312c0.196,-0.11 0.383,-0.221 0.579,-0.323c0.068,-0.042 0.135,-0.076 0.204,-0.111c0.365,-0.204 0.732,-0.4 1.106,-0.587c0.094,-0.051 0.188,-0.094 0.281,-0.144c0.511,-0.273 1.03,-0.528 1.558,-0.775c0.459,-0.23 0.91,-0.443 1.379,-0.655c1.2,-0.545 2.426,-1.064 3.66,-1.55c0.289,-0.127 0.578,-0.229 0.868,-0.331c0.425,-0.171 0.859,-0.332 1.285,-0.486c0.179,-0.068 0.366,-0.127 0.545,-0.187c0.697,-0.247 1.396,-0.477 2.093,-0.698c0.247,-0.085 0.502,-0.17 0.758,-0.238c0.502,-0.153 0.996,-0.307 1.489,-0.442c0.528,-0.154 1.056,-0.299 1.592,-0.435c8.919,-3.703 28.998,-4.196 38.607,-2.758c9.15,1.363 20.793,7.439 29.688,6.163c2.128,-0.306 5.762,-2.664 7.43,-2.375c0.094,0.017 0.188,0.043 0.264,0.077c0.068,0.017 0.128,0.051 0.179,0.093c0.034,0.017 0.068,0.043 0.093,0.069c0.009,-0 0.009,-0 0.017,0.017c0.043,0.033 0.077,0.076 0.111,0.118c0.051,0.043 0.076,0.094 0.103,0.145c0.067,0.128 0.11,0.272 0.144,0.426c0.102,0.511 0.008,1.141 -0.06,1.659c-0.042,0.316 -0.111,0.622 -0.195,0.928c-0.094,0.306 -0.196,0.605 -0.324,0.911c-0.4,1.013 -0.953,2.017 -1.362,3.038c-0.06,0.154 -0.119,0.298 -0.17,0.451c-0.068,0.196 -0.128,0.383 -0.179,0.579c-0.085,0.307 -0.145,0.613 -0.17,0.928c-0.026,0.239 -0.034,0.477 -0.026,0.715l0.009,-0c2.289,0.128 6.315,-0.179 8.392,0.698c0.247,0.102 0.511,0.264 0.758,0.477c0.068,0.059 0.145,0.127 0.213,0.196c0.042,0.042 0.084,0.084 0.127,0.127c0.043,0.043 0.077,0.094 0.119,0.136c0.077,0.094 0.145,0.196 0.205,0.298c0.042,0.077 0.077,0.153 0.111,0.23c0.135,0.306 0.169,0.647 0.042,0.97c-0.068,0.17 -0.153,0.332 -0.255,0.502c-0.077,0.128 -0.171,0.247 -0.273,0.375c-0.102,0.127 -0.213,0.255 -0.332,0.375c-0.043,0.042 -0.077,0.076 -0.119,0.118c-0.102,0.103 -0.213,0.205 -0.324,0.307c-0.391,0.349 -0.834,0.689 -1.293,1.039c-0.179,0.118 -0.366,0.255 -0.545,0.383c-1.294,0.927 -2.69,1.838 -3.609,2.774c-0.246,0.247 -0.459,0.493 -0.629,0.749c-0.06,0.085 -0.111,0.171 -0.154,0.255c-0.051,0.077 -0.093,0.162 -0.128,0.247c-0.067,0.153 -0.118,0.307 -0.135,0.459c-0.009,0.035 -0.017,0.069 -0.017,0.094c-0.026,0.154 -0.026,0.316 -0,0.477c0.008,0.051 0.025,0.102 0.042,0.162c0.017,0.051 0.043,0.111 0.076,0.162c0.061,0.11 0.145,0.229 0.256,0.357c0.051,0.06 0.111,0.127 0.178,0.195c0.724,0.733 1.984,1.584 3.065,2.426c0.17,0.128 0.332,0.265 0.485,0.392c0.162,0.128 0.306,0.256 0.451,0.391c0.11,0.103 0.213,0.205 0.306,0.307c0.043,0.051 0.094,0.102 0.137,0.144c0.033,0.026 0.05,0.052 0.067,0.077c0.026,0.026 0.044,0.051 0.06,0.077c0.323,0.4 0.639,0.817 0.945,1.242c0.153,0.213 0.307,0.434 0.46,0.655c0.23,0.333 0.451,0.665 0.664,1.005c0.212,0.349 0.434,0.69 0.638,1.047c0.238,0.408 0.476,0.817 0.698,1.243c0.434,0.791 0.842,1.6 1.225,2.442c0.103,0.214 0.204,0.426 0.298,0.648c0.596,1.327 1.149,2.714 1.643,4.144c0.154,0.417 0.298,0.843 0.434,1.268c0.162,0.503 0.323,1.005 0.477,1.516l-0,0.008c0.144,0.485 0.281,0.97 0.417,1.464c0.136,0.494 0.263,0.987 0.391,1.49c0.247,0.995 0.477,2 0.69,3.013c0.085,0.408 0.17,0.825 0.238,1.234c1.064,5.703 1.464,11.549 1.166,16.86c-0,0.06 -0,0.12 -0.009,0.171c-0.025,0.476 -0.059,0.953 -0.101,1.421c-0,0.085 -0.009,0.162 -0.017,0.23c-0.043,0.417 -0.086,0.843 -0.137,1.251c-0.051,0.511 -0.11,1.021 -0.187,1.516c-0.043,0.263 -0.077,0.527 -0.127,0.782c-0.111,0.707 -0.239,1.387 -0.383,2.06c-0.188,0.86 -0.401,1.719 -0.647,2.57c-0.12,0.426 -0.248,0.851 -0.383,1.277c-0.213,0.681 -0.444,1.354 -0.69,2.026c-0.094,0.255 -0.179,0.511 -0.281,0.757c-0.094,0.247 -0.187,0.502 -0.289,0.749c-0.894,2.23 -1.941,4.426 -3.107,6.571c-0.161,0.306 -0.332,0.605 -0.493,0.902c-0.145,0.264 -0.298,0.528 -0.443,0.783c-0.145,0.264 -0.298,0.519 -0.46,0.784c-0.119,0.212 -0.238,0.425 -0.382,0.638c-0.23,0.391 -0.461,0.783 -0.707,1.165c-0.111,0.188 -0.23,0.375 -0.349,0.562c-0.29,0.451 -0.57,0.894 -0.86,1.337c-0.375,0.579 -0.757,1.148 -1.14,1.71c-0.383,0.562 -0.766,1.124 -1.158,1.677c-0.783,1.107 -1.575,2.196 -2.375,3.26c-0.859,1.141 -1.719,2.255 -2.57,3.345c0.272,0.272 0.536,0.545 0.8,0.826c0.264,0.281 0.528,0.561 0.792,0.842c0.519,0.562 1.038,1.132 1.549,1.711c1.523,1.737 2.97,3.532 4.306,5.404c0.23,0.307 0.452,0.622 0.665,0.937c0.186,0.264 0.374,0.536 0.552,0.809c0.188,0.272 0.358,0.553 0.537,0.825c0.272,0.417 0.536,0.843 0.792,1.26c0.204,0.323 0.4,0.655 0.587,0.987c0.306,0.51 0.595,1.03 0.868,1.558c0.093,0.161 0.17,0.314 0.255,0.468c0.128,0.247 0.255,0.502 0.383,0.758c0.162,0.314 0.315,0.629 0.468,0.944c0.434,0.928 0.851,1.872 1.234,2.834c0.332,0.826 0.647,1.685 0.962,2.58c0.103,0.297 0.204,0.595 0.298,0.901c0.298,0.92 0.587,1.873 0.868,2.852c0.162,0.57 0.315,1.149 0.468,1.736c0.298,1.183 0.588,2.4 0.851,3.651c0.29,1.337 0.545,2.707 0.784,4.111c0.128,0.749 0.246,1.507 0.357,2.273c0.281,1.915 0.519,3.882 0.706,5.873c0.077,0.8 0.145,1.6 0.205,2.4l-0,0.008c0.059,0.809 0.111,1.618 0.153,2.426c0.025,0.511 0.051,1.022 0.068,1.532c0.034,0.766 0.051,1.541 0.068,2.316c0.017,0.774 0.026,1.548 0.026,2.323l-0,0.008c-0,1.771 -0.043,3.549 -0.128,5.328l-0,0.043c-0.026,0.587 -0.059,1.166 -0.102,1.754c-0.035,0.553 -0.068,1.106 -0.119,1.659c-0.051,0.664 -0.111,1.311 -0.179,1.967c-0.043,0.484 -0.093,0.969 -0.154,1.446c-0.008,0.111 -0.025,0.213 -0.033,0.323c-0.043,0.341 -0.085,0.682 -0.136,1.022c-0.341,2.672 -0.8,5.294 -1.379,7.839c-0.094,0.426 -0.196,0.834 -0.298,1.251c-0.009,0.043 -0.017,0.085 -0.026,0.128c-0.136,0.519 -0.264,1.038 -0.408,1.549c-0.145,0.544 -0.298,1.081 -0.46,1.609c-0.136,0.476 -0.28,0.944 -0.434,1.404c-0.119,0.374 -0.247,0.749 -0.375,1.106c-0.101,0.324 -0.212,0.639 -0.332,0.954c-0.34,0.936 -0.697,1.847 -1.08,2.732c-0.196,0.468 -0.409,0.936 -0.622,1.396c-0.221,0.476 -0.451,0.944 -0.689,1.413c-0.213,0.434 -0.442,0.859 -0.673,1.285c-0.213,0.391 -0.434,0.783 -0.664,1.166c-0.118,0.204 -0.238,0.408 -0.366,0.604c-0.144,0.247 -0.297,0.485 -0.451,0.723c-0.093,0.145 -0.187,0.29 -0.289,0.434c-0.145,0.23 -0.298,0.46 -0.459,0.682c-0.154,0.229 -0.315,0.451 -0.486,0.672c-0.051,0.085 -0.11,0.162 -0.17,0.238c-0.221,0.307 -0.46,0.604 -0.698,0.902c-0.042,0.06 -0.085,0.119 -0.136,0.17c-0.221,0.282 -0.451,0.554 -0.681,0.817m-69.733,17.687c-0.051,0.119 -0.111,0.23 -0.162,0.34c-0.093,0.188 -0.187,0.366 -0.289,0.545c-0.103,0.179 -0.213,0.358 -0.324,0.528c-0.127,0.205 -0.255,0.4 -0.4,0.587c-0.323,0.46 -0.689,0.886 -1.081,1.286c-0.23,0.229 -0.459,0.451 -0.706,0.672c-0.128,0.111 -0.256,0.213 -0.383,0.315c-0.29,0.23 -0.587,0.451 -0.894,0.647c-0.238,0.162 -0.477,0.314 -0.732,0.459c-0.034,0.017 -0.068,0.043 -0.102,0.051c-0.255,0.145 -0.511,0.282 -0.774,0.409l-0.009,-0c-0.23,0.111 -0.46,0.213 -0.698,0.307c-0.144,0.067 -0.288,0.126 -0.44,0.177c-0.232,0.087 -0.464,0.175 -0.7,0.248c-0.162,0.051 -0.324,0.102 -0.486,0.144c-0.187,0.052 -0.374,0.103 -0.57,0.154c-0.187,0.05 -0.382,0.094 -0.578,0.128c-0.188,0.042 -0.375,0.076 -0.571,0.11c-0.187,0.034 -0.374,0.06 -0.57,0.085c-0.221,0.034 -0.443,0.06 -0.664,0.077c-0.749,0.068 -1.498,0.085 -2.247,0.051c-0.145,-0.009 -0.298,-0.017 -0.442,-0.034c-0.231,-0.009 -0.46,-0.034 -0.69,-0.06c-0.213,-0.025 -0.426,-0.051 -0.638,-0.085c-0.102,-0.017 -0.213,-0.034 -0.323,-0.051c-0.205,-0.026 -0.4,-0.068 -0.596,-0.11c-0.137,-0.026 -0.273,-0.052 -0.4,-0.094c-0.222,-0.043 -0.443,-0.102 -0.665,-0.171c-0.28,-0.076 -0.561,-0.161 -0.834,-0.255l0.52,-1.047l0.008,0c0.289,-0.17 0.638,-0.476 1.038,-0.885c0.077,-0.085 0.162,-0.17 0.247,-0.255c0.017,-0.017 0.034,-0.035 0.043,-0.051c0.094,-0.102 0.195,-0.213 0.298,-0.323c0.519,-0.571 1.072,-1.252 1.634,-1.95c0.11,-0.136 0.23,-0.272 0.341,-0.417c0.323,-0.4 0.646,-0.8 0.961,-1.192c0.111,-0.135 0.213,-0.263 0.324,-0.391c0.093,-0.11 0.179,-0.221 0.272,-0.332c0.724,-0.876 1.396,-1.642 1.932,-2.102c0.068,-0.06 0.136,-0.111 0.196,-0.153c0.034,-0.034 0.068,-0.06 0.102,-0.077c0.059,-0.043 0.119,-0.085 0.179,-0.111c0.076,-0.042 0.145,-0.076 0.204,-0.094c0.264,-0.076 0.579,-0.084 0.927,-0.042c0.052,0.009 0.094,0.009 0.137,0.017c0.051,0 0.094,0.008 0.145,0.025c0.11,0.018 0.229,0.044 0.349,0.069c0.348,0.076 0.731,0.187 1.14,0.323c0.332,0.111 0.664,0.238 1.013,0.366c0.664,0.247 1.362,0.528 2.051,0.783c0.17,0.06 0.341,0.128 0.511,0.188c0.195,0.068 0.392,0.136 0.587,0.204c0.57,0.187 1.132,0.332 1.651,0.425c0.196,0.034 0.391,0.06 0.57,0.068c0.29,0.026 0.562,0.009 0.809,-0.034c-0.068,0.179 -0.144,0.358 -0.221,0.528m-19.746,2.681c-0.273,0.281 -0.562,0.562 -0.843,0.834c-2.341,2.307 -4.758,4.528 -7.235,6.639c-0.358,0.307 -0.706,0.604 -1.064,0.894c-0.229,0.204 -0.451,0.392 -0.689,0.578c-0.23,0.188 -0.46,0.375 -0.69,0.562c-1.565,1.294 -3.157,2.529 -4.766,3.711c-0.451,0.349 -0.919,0.69 -1.387,1.013c-0.009,0.017 -0.026,0.025 -0.034,0.025c-0.588,0.426 -1.175,0.844 -1.771,1.252c-0.196,0.136 -0.4,0.272 -0.596,0.408c-0.34,0.239 -0.689,0.469 -1.03,0.69c-0.356,0.247 -0.714,0.485 -1.08,0.715c-1.005,0.655 -2.009,1.285 -3.014,1.898c-0.604,0.357 -1.199,0.715 -1.803,1.055c-0.511,0.298 -1.013,0.588 -1.524,0.86c-0.698,0.383 -1.388,0.758 -2.077,1.115c-2.613,1.353 -5.498,3.03 -8.401,1.54c-0.697,-0.357 -0.953,-1.004 -1.149,-1.114c-3.515,-2.137 -9.387,-5.848 -11.89,-8.75c-7.975,-5.907 -15.244,-13.686 -21.134,-21.712c-4.681,-6.358 -9.209,-13.891 -12.511,-21.066c-1.192,-2.571 -3.992,-8.461 -4.401,-10.98c-0.085,-0.527 -0.11,-0.97 -0.093,-1.344c-0,-0.06 0.008,-0.12 0.017,-0.179c-0,-0.069 0.008,-0.128 0.025,-0.187c0.009,-0.069 0.026,-0.12 0.034,-0.179c0.034,-0.171 0.086,-0.316 0.154,-0.451c0.034,-0.069 0.059,-0.128 0.102,-0.187c0.034,-0.06 0.076,-0.12 0.11,-0.171c0.043,-0.059 0.085,-0.111 0.137,-0.162c0.059,-0.076 0.127,-0.135 0.196,-0.196c0.135,-0.118 0.297,-0.238 0.468,-0.339c0.604,-0.375 1.387,-0.707 2.263,-1.243c0.29,-0.179 0.605,-0.528 0.988,-0.843c0.085,-0.077 0.179,-0.145 0.281,-0.213c0.195,-0.136 0.417,-0.247 0.655,-0.306c0.162,-0.034 0.332,-0.051 0.519,-0.034c5.141,18.537 16.418,36.675 30.973,49.289c2.468,2.145 11.933,9.515 14.674,9.813c3.838,0.426 10.468,-3.728 13.728,-5.872c0.672,-0.443 1.345,-0.903 2.018,-1.379c0.672,-0.477 1.345,-0.971 2.017,-1.481c0.451,-0.341 0.893,-0.69 1.344,-1.047c0.903,-0.715 1.796,-1.447 2.69,-2.213c2.213,-1.898 4.417,-3.958 6.563,-6.137c0.306,-0.306 0.612,-0.621 0.918,-0.936c0.35,-0.357 0.69,-0.715 1.022,-1.073c1.387,-1.472 2.749,-2.978 4.06,-4.527c0.332,-0.384 0.664,-0.767 0.979,-1.158c0.297,-0.349 0.587,-0.698 0.868,-1.047c0.434,-0.536 0.868,-1.072 1.285,-1.609c0.553,-0.689 1.09,-1.387 1.617,-2.085c0.272,-0.349 0.528,-0.698 0.783,-1.047c0.375,-0.502 0.741,-1.013 1.106,-1.514c0.35,-0.495 0.699,-0.979 1.039,-1.474c0.468,-0.68 0.936,-1.352 1.379,-2.034c0.374,-0.561 0.74,-1.123 1.098,-1.685c0.323,-0.502 0.63,-1.004 0.936,-1.506c0.264,-0.417 0.519,-0.843 0.766,-1.268c0.085,-0.137 0.17,-0.281 0.247,-0.417c0.485,-0.817 0.945,-1.626 1.379,-2.434c0.196,-0.35 0.383,-0.699 0.562,-1.047c0.169,-0.316 0.331,-0.63 0.493,-0.945c0.485,-0.945 0.945,-1.873 1.371,-2.792c0.613,-1.328 2.247,-6.622 3.072,-7.073c1.226,-0.655 1.634,2.468 2.043,3.235c0.136,0.263 1.344,1.778 1.472,1.855c0.06,0.034 0.188,0.043 0.358,0.051c0.11,0.008 0.23,0.017 0.365,0.034c0.188,0.025 0.392,0.076 0.562,0.179c1.251,0.757 3.559,1.608 3.643,3.055c0.009,0.119 -0.008,0.256 -0.034,0.417c-0.025,0.137 -0.06,0.272 -0.111,0.434c-0.042,0.154 -0.093,0.316 -0.161,0.485c-0.034,0.094 -0.068,0.179 -0.102,0.273c-0.068,0.179 -0.154,0.375 -0.238,0.571c-0.078,0.169 -0.154,0.339 -0.247,0.527c-0.06,0.136 -0.12,0.263 -0.187,0.4c-0.205,0.417 -0.434,0.859 -0.673,1.302c-0.349,0.656 -0.715,1.311 -1.064,1.924c-0.544,0.962 -1.047,1.804 -1.362,2.332c-0.017,0.025 -0.034,0.051 -0.051,0.077c-0.255,0.442 -0.519,0.876 -0.775,1.31c-0.263,0.443 -0.527,0.877 -0.808,1.311c-0.612,0.979 -1.251,1.966 -1.907,2.945c-0.987,1.472 -2.025,2.945 -3.115,4.408c-0.357,0.495 -0.723,0.979 -1.097,1.465c-0.741,0.97 -1.499,1.932 -2.273,2.894c-0.69,0.851 -1.387,1.702 -2.111,2.544c-0.358,0.426 -0.723,0.843 -1.089,1.268c-1.592,1.839 -3.252,3.643 -4.962,5.414c-0.299,0.314 -0.605,0.621 -0.911,0.927c-0.298,0.316 -0.605,0.622 -0.919,0.928m-93.327,-45.152c-0.017,-0.017 -0.025,-0.026 -0.043,-0.026c-0.076,-0.017 -0.144,-0.034 -0.221,-0.051c-0.017,0.009 -0.043,0 -0.06,-0.008c-0.025,-0.009 -0.051,-0.017 -0.076,-0.017c-0.008,-0 -0.017,-0 -0.025,-0.009l-0.009,0l-0.009,-0.008c-0.008,-0 -0.026,-0 -0.034,-0.009c-0.085,-0.017 -0.17,-0.043 -0.255,-0.068c-0.034,-0.009 -0.06,-0.017 -0.093,-0.026c-0.017,-0.008 -0.035,-0.008 -0.052,-0.017c-0.17,-0.051 -0.34,-0.119 -0.502,-0.187c-0.213,-0.085 -0.417,-0.179 -0.613,-0.289c-0.204,-0.103 -0.391,-0.221 -0.579,-0.341c-0.195,-0.128 -0.374,-0.263 -0.553,-0.417c-0.026,-0.017 -0.051,-0.042 -0.076,-0.059c-0.171,-0.145 -0.341,-0.307 -0.494,-0.469c-0.153,-0.161 -0.298,-0.323 -0.443,-0.502c-0.034,-0.051 -0.076,-0.094 -0.11,-0.145c-0.12,-0.161 -0.238,-0.331 -0.349,-0.51c-0.068,-0.102 -0.128,-0.213 -0.188,-0.315c-0.161,-0.289 -0.306,-0.596 -0.434,-0.919c-0.059,-0.153 -0.11,-0.307 -0.162,-0.459c-0.059,-0.197 -0.11,-0.384 -0.152,-0.579c-0.052,-0.179 -0.086,-0.358 -0.111,-0.537c0.476,-0.008 0.928,0.043 1.37,0.103c0.272,0.042 0.545,0.085 0.826,0.127c0.417,0.059 0.851,0.111 1.302,0.119c3.788,0.077 6.724,-0.987 10.146,-2.442c-0.392,3.599 -3.209,8.281 -7.235,8.375c-0.477,0.017 -0.664,-0.238 -0.766,-0.315m-6.741,-11.04c-1.021,-0.689 -1.72,-1.523 -2.162,-2.536c-0.085,-0.17 -0.154,-0.349 -0.204,-0.528c-0.119,-0.357 -0.213,-0.74 -0.281,-1.148c-0.069,-0.4 -0.111,-0.826 -0.128,-1.286c-0.008,-0.204 -0.017,-0.426 -0.017,-0.647c-0.008,-0.434 0.009,-0.885 0.042,-1.37c0.29,-0.298 3.584,1.268 4.197,1.396c1.881,0.408 4.886,0.502 6.817,0.349c1.481,-0.12 6.826,-1.754 7.55,-1.243c1.192,0.843 -0.809,4.307 -1.481,5.209c-2.834,3.788 -7.558,4.579 -11.839,3.03c-0.494,-0.179 -0.945,-0.375 -1.362,-0.571c-0.417,-0.204 -0.792,-0.425 -1.132,-0.655m-2.817,-18.954c1.566,-2.954 3.447,-1.515 5.66,-1.149c3.081,0.51 17.899,2.136 11.379,8.051c-3.072,2.784 -9.958,3.711 -13.822,2.434c-4.332,-1.421 -5.294,-5.438 -3.217,-9.336m124.503,-0.017c-0.008,0.051 -0.017,0.093 -0.017,0.144c-0.008,0.052 -0.017,0.094 -0.025,0.137c-0.009,0.042 -0.017,0.084 -0.034,0.128c-0.026,0.093 -0.051,0.186 -0.077,0.272c-0.034,0.101 -0.068,0.204 -0.102,0.297c-0.034,0.094 -0.076,0.188 -0.119,0.273c-0.043,0.085 -0.094,0.17 -0.136,0.255c-0.051,0.077 -0.103,0.154 -0.154,0.222c-0.051,0.076 -0.11,0.144 -0.17,0.212c-0.051,0.068 -0.11,0.137 -0.179,0.188c-0.196,0.187 -0.417,0.349 -0.647,0.501c-0.008,0.009 -0.017,0.018 -0.033,0.018c-0.085,0.051 -0.171,0.102 -0.256,0.144c-0.128,0.069 -0.264,0.137 -0.4,0.188c-0.136,0.059 -0.272,0.119 -0.417,0.17c-0.298,0.11 -0.604,0.213 -0.919,0.314c-0.153,0.044 -0.298,0.095 -0.451,0.145c-0.154,0.051 -0.298,0.103 -0.451,0.154c-0.12,0.034 -0.23,0.076 -0.349,0.119c-0.188,0.077 -0.375,0.144 -0.562,0.23c-4.358,1.915 -10.409,3.54 -9.422,9.601c0.026,0.152 0.06,0.297 0.102,0.434c0.043,0.135 0.093,0.263 0.154,0.391c0.025,0.06 0.059,0.128 0.084,0.187c0.085,0.17 0.171,0.332 0.256,0.503c0.127,0.246 0.246,0.493 0.34,0.766c0.128,0.383 0.196,0.808 0.12,1.344c-0.026,0.153 -0.06,0.324 -0.111,0.503c-0.034,0.127 -0.094,0.255 -0.179,0.374c-0.034,0.06 -0.076,0.119 -0.127,0.178c-0.043,0.061 -0.094,0.12 -0.137,0.179c-0.077,0.094 -0.145,0.179 -0.204,0.282c-0.068,0.101 -0.128,0.204 -0.17,0.314c-0.034,0.069 -0.06,0.145 -0.077,0.23c-0.307,1.286 -0.094,2.571 0.383,3.771c0.162,0.408 0.357,0.808 0.579,1.191c0.127,0.23 0.255,0.451 0.4,0.664c0.417,0.655 0.885,1.268 1.362,1.822l0.008,0.008c0.154,0.179 0.349,0.366 0.562,0.544c0.145,0.128 0.298,0.256 0.451,0.383c0.238,0.196 0.493,0.401 0.732,0.613c0.153,0.128 0.289,0.265 0.426,0.4c0.213,0.213 0.408,0.443 0.561,0.682c0,-0 0.008,-0 0.008,0.008c0.052,0.077 0.095,0.161 0.137,0.238c0.008,0.017 0.017,0.034 0.025,0.051c0.017,0.051 0.043,0.103 0.06,0.145c0.026,0.06 0.043,0.11 0.06,0.171c0.008,0.025 0.017,0.05 0.025,0.076c0.009,0.025 0.009,0.051 0.017,0.076c0.179,0.775 -0.034,1.899 -0.459,3.167c-0.103,0.323 -0.23,0.655 -0.358,0.996c-0.076,0.196 -0.153,0.391 -0.238,0.587c-0.281,0.681 -0.604,1.378 -0.945,2.077c-0.136,0.289 -0.281,0.569 -0.426,0.851c-0.135,0.289 -0.289,0.562 -0.434,0.842c-0.289,0.545 -0.578,1.081 -0.851,1.575c-0.067,0.127 -0.136,0.247 -0.204,0.366c-0.476,0.843 -0.894,1.574 -1.2,2.111c-0.511,0.893 -1.03,1.787 -1.549,2.664c-1.056,1.761 -2.145,3.49 -3.277,5.183c-1.132,1.694 -2.298,3.345 -3.507,4.97c-6.647,8.904 -14.494,16.708 -23.789,23.254c-0.332,0.238 -0.758,0.536 -1.251,0.868c-0.153,0.102 -0.306,0.212 -0.476,0.332c-1.116,0.766 -2.495,1.676 -3.89,2.511c-0.187,0.111 -0.375,0.229 -0.562,0.34c-0.63,0.366 -1.259,0.715 -1.864,1.022c-0.187,0.101 -0.366,0.187 -0.545,0.272c-0.979,0.468 -1.872,0.808 -2.588,0.936c-0.067,0.009 -0.135,0.017 -0.195,0.026c-0.043,0.017 -0.094,0.017 -0.136,0.017c-0.077,0.008 -0.153,0.017 -0.221,0.008l-0.086,0c-0.051,0 -0.093,0 -0.135,-0.008c-0.052,-0 -0.094,-0.009 -0.137,-0.017c-0.085,-0.009 -0.162,-0.034 -0.238,-0.06c-0.145,-0.051 -0.273,-0.111 -0.392,-0.178c-0.067,-0.044 -0.136,-0.094 -0.212,-0.137c-0.068,-0.051 -0.137,-0.094 -0.213,-0.136c-0.086,-0.051 -0.171,-0.094 -0.264,-0.136c-5.473,-2.247 -11.822,-8.801 -16.095,-12.938c-1.464,-1.421 -2.851,-2.757 -4.171,-4.102c-0.272,-0.281 -0.544,-0.561 -0.816,-0.843c-0.239,-0.246 -0.469,-0.493 -0.707,-0.74c-1.634,-1.753 -3.191,-3.592 -4.741,-5.745c-0.162,-0.222 -0.332,-0.469 -0.511,-0.715c-0.179,-0.255 -0.357,-0.527 -0.544,-0.809c-0.196,-0.28 -0.392,-0.57 -0.588,-0.876c-0.195,-0.307 -0.408,-0.622 -0.612,-0.954c-0.103,-0.162 -0.213,-0.331 -0.324,-0.502c-0.34,-0.536 -0.689,-1.098 -1.055,-1.685c-0.323,-0.528 -0.656,-1.081 -0.996,-1.643c-0.239,-0.4 -0.477,-0.799 -0.715,-1.217c-0.187,-0.315 -0.375,-0.63 -0.562,-0.945c-0.187,-0.315 -0.366,-0.638 -0.553,-0.962c-0.119,-0.212 -0.247,-0.434 -0.366,-0.655c-0.996,-1.762 -2,-3.626 -2.987,-5.515c-0.256,-0.477 -0.494,-0.936 -0.724,-1.422c-1.336,-2.63 -2.596,-5.311 -3.694,-7.898c-0.204,-0.468 -0.392,-0.928 -0.578,-1.387c-0.086,-0.23 -0.179,-0.46 -0.265,-0.69c0,-0.009 0,-0.009 -0.008,-0.009c-0.188,-0.459 -0.358,-0.91 -0.519,-1.361c-0.06,-0.153 -0.111,-0.307 -0.162,-0.46c-0.604,-1.66 -1.098,-3.251 -1.472,-4.724l-0.128,-0.51c-0.085,-0.383 -0.17,-0.766 -0.238,-1.132c-0,-0.034 -0.009,-0.068 -0.017,-0.111c-0.026,-0.136 -0.051,-0.273 -0.068,-0.408l-0,-0.017c-0.026,-0.128 -0.043,-0.256 -0.06,-0.375c-0.009,-0.051 -0.017,-0.111 -0.017,-0.162c-0.026,-0.17 -0.043,-0.34 -0.06,-0.51c-0.016,-0.086 -0.016,-0.17 -0.025,-0.256c-0.008,-0.085 -0.017,-0.161 -0.025,-0.247c-0.009,-0.017 -0.009,-0.042 -0.009,-0.059c-0.009,-0.119 -0.018,-0.23 -0.018,-0.349l0,-0.076c-0.008,-0.154 -0.017,-0.316 -0.017,-0.469c0,-0.23 0.009,-0.451 0.026,-0.672c0.018,-0.213 0.035,-0.426 0.068,-0.63c0.017,-0.128 0.043,-0.255 0.077,-0.375c-0,-0.008 0.008,-0.017 -0,-0.025c0.034,-0.127 0.068,-0.247 0.094,-0.366c0.068,-0.247 0.152,-0.477 0.23,-0.698c0.05,-0.119 0.093,-0.23 0.144,-0.349c0.026,-0.085 0.06,-0.162 0.094,-0.238c0.017,-0.026 0.025,-0.06 0.042,-0.085c0.103,-0.221 0.196,-0.434 0.29,-0.648c0.085,-0.178 0.161,-0.356 0.23,-0.544c0.084,-0.204 0.162,-0.408 0.229,-0.621c0.026,-0.094 0.06,-0.196 0.085,-0.298c0.034,-0.102 0.06,-0.205 0.077,-0.315c0.009,-0.017 0.009,-0.034 0.009,-0.059c0.025,-0.137 0.051,-0.273 0.059,-0.409c0.017,-0.068 0.017,-0.145 0.017,-0.213c0.017,-0.102 0.017,-0.205 0.017,-0.306c0,-0.12 -0.008,-0.247 -0.017,-0.375c0,-0.093 -0.017,-0.196 -0.034,-0.298c-0.008,-0.102 -0.025,-0.204 -0.051,-0.315c-0.017,-0.102 -0.043,-0.213 -0.068,-0.323c-0.026,-0.111 -0.06,-0.221 -0.094,-0.341c-0.017,-0.05 -0.034,-0.102 -0.042,-0.144c-0.009,-0.043 -0.025,-0.085 -0.052,-0.119c-0.042,-0.12 -0.093,-0.23 -0.152,-0.332c-0,-0.017 -0.018,-0.043 -0.026,-0.06c-0.068,-0.119 -0.136,-0.238 -0.213,-0.357c-0.077,-0.128 -0.161,-0.256 -0.247,-0.383c-0.204,-0.323 -0.408,-0.656 -0.561,-1.022c-0.026,-0.042 -0.043,-0.085 -0.06,-0.136c-0.009,-0.026 -0.017,-0.06 -0.026,-0.085c-0.025,-0.059 -0.042,-0.12 -0.059,-0.179c-0.008,-0.017 -0.008,-0.042 -0.008,-0.059c-0.009,-0.034 -0.017,-0.068 -0.026,-0.111c-0.017,-0.043 -0.017,-0.085 -0.026,-0.136c-0.017,-0.086 -0.026,-0.17 -0.034,-0.264c-0.025,-0.332 -0.009,-0.681 0.025,-1.022c0.044,-0.442 0.12,-0.893 0.214,-1.353l-0,-0.008c0.076,-0.349 0.153,-0.698 0.221,-1.038l0,-0.009c0.051,-0.239 0.093,-0.469 0.136,-0.698c0.042,-0.238 0.077,-0.468 0.111,-0.706c0.025,-0.179 0.042,-0.358 0.051,-0.537c0.025,-0.4 0.034,-0.808 -0.017,-1.2c-0.026,-0.23 -0.068,-0.459 -0.128,-0.681c-0.06,-0.221 -0.136,-0.442 -0.23,-0.663l0,-0.009c-0.102,-0.221 -0.213,-0.443 -0.358,-0.656c-0.093,-0.144 -0.195,-0.289 -0.314,-0.434c-0.12,-0.144 -0.247,-0.289 -0.383,-0.425c-1.268,-1.277 -2.996,-1.311 -4.035,-2.375c-0.051,-0.043 -0.093,-0.094 -0.135,-0.144c-0.341,-0.401 -0.588,-0.937 -0.699,-1.702c-0.187,-1.295 -0.323,-2.784 -0.425,-4.333c-0.111,-1.617 -0.188,-3.294 -0.239,-4.851c-0.017,-0.469 -0.033,-0.928 -0.042,-1.379c-0.017,-0.443 -0.034,-0.877 -0.042,-1.285c-0.035,-1.226 -0.052,-2.46 -0.052,-3.694l-0,-0.06c-0,-0.689 0.008,-1.37 0.025,-2.06l0,-0.025c0.01,-0.698 0.035,-1.388 0.069,-2.086c0.059,-1.387 0.17,-2.765 0.331,-4.136l0.01,0c19.439,-2 37.075,-11.865 51.408,-24.666c0.306,-0.162 0.527,-0.23 0.681,-0.23c0.076,0 0.136,0.017 0.187,0.051l0.008,0l0.077,0.077c0.017,0.026 0.034,0.06 0.043,0.085c0.008,0.034 0.025,0.069 0.025,0.102c0.009,0.017 0.009,0.043 0.009,0.068l-0,0.026c0.008,0.111 0.008,0.221 0.008,0.28c0,0.035 0,0.052 0.009,0.06c0.076,0.051 0.766,-0.033 1.234,0.332c12.052,9.55 23.014,17.857 36.93,22.478c0.979,0.324 1.967,0.63 2.971,0.92c0.749,0.221 1.515,0.426 2.289,0.613c2.315,0.579 4.724,1.055 7.226,1.43c0.154,0.025 0.307,0.042 0.451,0.068c0.171,0.017 0.341,0.042 0.511,0.059c2.239,0.247 4.511,0.256 6.657,0.656c-0.069,1.864 0.272,3.941 0.442,5.855c0.051,0.579 0.085,1.15 0.085,1.685c0.008,0.767 -0,1.601 -0.017,2.495c-0,0.238 -0.009,0.476 -0.017,0.714c-0,0.35 -0.009,0.698 -0.026,1.056c-0.008,0.298 -0.016,0.596 -0.025,0.902c-0.008,0.247 -0.017,0.494 -0.025,0.74c-0.009,0.248 -0.018,0.503 -0.035,0.758c-0.026,0.732 -0.059,1.472 -0.11,2.222c-0.009,0.221 -0.017,0.442 -0.034,0.663c-0.017,0.205 -0.026,0.409 -0.043,0.613c-0.034,0.613 -0.077,1.217 -0.128,1.813c-0.017,0.196 -0.025,0.392 -0.042,0.588c-0.043,0.544 -0.086,1.072 -0.145,1.6c-0.017,0.204 -0.034,0.408 -0.059,0.604c-0,0.034 -0,0.068 -0.009,0.102c-0.034,0.324 -0.068,0.638 -0.102,0.945c-0.043,0.409 -0.094,0.8 -0.145,1.182c-0.034,0.256 -0.068,0.503 -0.102,0.741c-0.008,0.085 -0.017,0.162 -0.034,0.238c-0.025,0.162 -0.051,0.316 -0.077,0.469m-5.345,-61.954c-0.102,0.144 -0.204,0.289 -0.306,0.434c-0.315,0.442 -0.664,0.859 -1.038,1.268c-0.086,0.102 -0.179,0.196 -0.273,0.29c-0.161,0.178 -0.34,0.348 -0.51,0.519c-0.034,0.033 -0.061,0.059 -0.095,0.084c-0.144,0.145 -0.289,0.273 -0.434,0.4c-0.229,0.214 -0.476,0.417 -0.731,0.622c-0.196,0.162 -0.409,0.315 -0.613,0.468c-0.162,0.119 -0.324,0.239 -0.494,0.358c-0.331,0.23 -0.672,0.451 -1.021,0.664c-0.34,0.213 -0.698,0.417 -1.056,0.613c-0.357,0.195 -0.723,0.391 -1.097,0.561c-0,0.009 -0.017,0.017 -0.017,0.017c-0.375,0.179 -0.75,0.349 -1.133,0.511c-0.4,0.162 -0.8,0.324 -1.208,0.468c-0.145,0.06 -0.298,0.111 -0.443,0.162c-0.162,0.05 -0.324,0.111 -0.493,0.161c-0.452,0.145 -0.903,0.281 -1.354,0.4c-0.034,0.009 -0.068,0.017 -0.093,0.026c-0.486,0.119 -0.979,0.23 -1.465,0.332c-0.757,0.144 -1.514,0.255 -2.255,0.332c-0.332,0.034 -0.647,0.051 -0.97,0.068c-0.162,0.017 -0.315,0.026 -0.477,0.026c-0.689,0.017 -1.361,-0 -2.009,-0.052c-2.91,-0.238 -3.361,-1.395 -5.404,-2.468c-1.43,-0.749 -2.613,-1.115 -4.06,-1.702c-0.417,-0.171 -0.588,-0.426 -0.588,-0.706c0,-0.069 0.018,-0.145 0.035,-0.222c0.043,-0.153 0.119,-0.306 0.23,-0.46c0.051,-0.076 0.11,-0.152 0.179,-0.229l0.008,-0c0.127,-0.136 0.885,-0.502 1.736,-0.885c0.086,-0.034 0.17,-0.077 0.255,-0.12c0.265,-0.11 0.528,-0.23 0.783,-0.34c0.196,-0.077 0.384,-0.162 0.554,-0.23c0.068,-0.034 0.136,-0.06 0.196,-0.085c0.068,-0.026 0.118,-0.059 0.179,-0.076c0.263,-0.111 0.476,-0.205 0.604,-0.256c7.319,-2.962 15.005,-5.328 22.98,-4.128c0.026,-0 0.06,0.008 0.094,0.017c0.06,0.008 0.127,0.017 0.204,0.025c0.06,0.009 0.128,0.026 0.204,0.035c0.111,0.017 0.221,0.034 0.349,0.059c0.494,0.085 1.098,0.205 1.558,0.341c0.051,0.008 0.102,0.025 0.144,0.042c0.137,0.043 0.256,0.085 0.349,0.137c0.103,0.042 0.171,0.093 0.205,0.135c0.017,0.026 0.025,0.051 0.025,0.078c-0.068,0.161 -0.136,0.323 -0.204,0.476c-0.298,0.63 -0.638,1.243 -1.03,1.83m-4.102,-21.678c0.391,0.459 0.766,0.945 1.124,1.438c0.714,0.979 1.369,2.026 1.965,3.106c0.154,0.273 0.298,0.545 0.434,0.817c0.06,0.12 0.12,0.239 0.179,0.358c0.103,0.187 0.196,0.383 0.281,0.571c0.511,1.08 0.97,2.178 1.37,3.302c0.111,0.28 0.213,0.57 0.298,0.859c0.468,1.413 0.851,2.835 1.132,4.222c0.06,0.264 0.103,0.528 0.153,0.791c0.06,0.315 0.111,0.63 0.162,0.937c-8.205,-2.758 -15.575,-1.796 -23.525,1.132c-0.221,0.085 -0.494,0.195 -0.809,0.332c-0.111,0.042 -0.212,0.094 -0.332,0.144c-0.136,0.06 -0.28,0.128 -0.434,0.196c-0.17,0.077 -0.348,0.162 -0.536,0.247c-0.502,0.23 -1.056,0.493 -1.642,0.775c-0.111,0.051 -0.231,0.101 -0.341,0.162c-1.081,0.51 -2.239,1.055 -3.345,1.548c-0.178,0.086 -0.357,0.162 -0.536,0.238c-0.689,0.307 -1.345,0.588 -1.941,0.817c-0.264,0.103 -0.51,0.196 -0.749,0.282c-0.229,0.085 -0.451,0.152 -0.655,0.213c-0.068,0.025 -0.128,0.042 -0.179,0.05c-0.085,0.026 -0.17,0.043 -0.247,0.06c-0.238,0.06 -0.443,0.085 -0.595,0.077c-0.077,-0 -0.171,-0.026 -0.265,-0.06c-0.059,-0.017 -0.118,-0.043 -0.187,-0.077c-1.234,-0.57 -3.711,-2.834 -5.242,-4.315c-0.068,-0.068 -0.137,-0.136 -0.205,-0.204c-0.068,-0.068 -0.136,-0.136 -0.196,-0.187c-0.059,-0.06 -0.119,-0.12 -0.178,-0.179c-0.051,-0.06 -0.111,-0.11 -0.162,-0.162c-0.154,-0.161 -0.281,-0.289 -0.375,-0.392c-0.076,-0.076 -0.152,-0.144 -0.238,-0.195c-0.247,-0.179 -0.527,-0.281 -0.783,-0.477c-0.043,-0.034 -0.085,-0.068 -0.119,-0.102c-0.204,-0.187 -0.383,-0.451 -0.503,-0.877c-0.059,-0.17 -0.101,-0.365 -0.127,-0.596c-0.128,-1.012 0.026,-2.102 0.392,-3.225c0.136,-0.425 0.297,-0.852 0.493,-1.286c0.196,-0.434 0.426,-0.876 0.672,-1.327c0.248,-0.434 0.511,-0.876 0.801,-1.31c0.604,-0.912 1.294,-1.822 2.042,-2.716c0.247,-0.298 0.503,-0.596 0.766,-0.885c0.196,-0.213 0.392,-0.434 0.588,-0.647c0.196,-0.204 0.4,-0.417 0.596,-0.63c0.204,-0.204 0.408,-0.408 0.613,-0.612c0.417,-0.409 0.825,-0.809 1.251,-1.192c0.204,-0.196 0.417,-0.383 0.629,-0.571c2.086,-1.863 4.171,-3.378 5.762,-4.264c4.282,-2.383 9.303,-3.617 14.104,-2.161c0.859,0.255 1.676,0.587 2.468,0.986c0.255,0.12 0.502,0.256 0.749,0.392c0.264,0.153 0.528,0.307 0.783,0.469c0.23,0.144 0.451,0.297 0.673,0.451c0.34,0.238 0.68,0.493 1.004,0.757c0.059,0.043 0.127,0.094 0.179,0.153c0.008,-0 0.017,-0 0.017,0.017c0.127,0.102 0.255,0.204 0.374,0.315c0.128,0.103 0.256,0.213 0.374,0.332c0.273,0.247 0.537,0.511 0.8,0.774c0.426,0.427 0.826,0.869 1.218,1.329m-42.787,-2.988c-0.221,-0.349 -0.425,-0.715 -0.596,-1.098c-0.178,-0.383 -0.34,-0.783 -0.484,-1.183c-0.145,-0.409 -0.273,-0.817 -0.367,-1.234c-0.042,-0.196 -0.093,-0.383 -0.128,-0.588c-0.008,-0.034 -0.017,-0.068 -0.017,-0.11c-0.042,-0.136 -0.059,-0.273 -0.084,-0.417c-0.009,-0.052 -0.017,-0.102 -0.026,-0.153c-0.017,-0.103 -0.034,-0.213 -0.042,-0.316c-0.043,-0.323 -0.077,-0.646 -0.103,-0.961c-0.025,-0.213 -0.042,-0.425 -0.042,-0.63c-0.009,-0.221 -0.009,-0.434 -0.009,-0.656c0,-0.468 0.017,-0.927 0.051,-1.369c0.009,-0.094 0.017,-0.196 0.034,-0.299c0.034,-0.297 0.086,-0.621 0.145,-0.944c0.009,-0.111 0.034,-0.222 0.068,-0.341c0.034,-0.17 0.069,-0.34 0.111,-0.511c0.127,-0.519 0.281,-1.047 0.468,-1.565c0.085,-0.239 0.179,-0.468 0.272,-0.699c0.153,-0.365 0.324,-0.723 0.511,-1.055c0.102,-0.196 0.204,-0.383 0.324,-0.561c0.068,-0.103 0.135,-0.205 0.203,-0.299c0.06,-0.093 0.128,-0.187 0.205,-0.28c0.23,-0.307 0.477,-0.579 0.74,-0.809c0.103,-0.094 0.205,-0.179 0.307,-0.256c0.11,-0.084 0.221,-0.161 0.332,-0.229c0.349,-0.222 0.732,-0.383 1.132,-0.468c0.085,-0.026 0.153,-0.034 0.238,-0.043c0.468,-0.077 0.979,-0.051 1.515,0.094c0.46,0.128 1.055,-0.119 1.396,0.545c-1.013,2.255 -1.898,4.06 0.587,5.694c0.077,0.051 0.162,0.102 0.255,0.144c0.426,0.222 0.962,0.392 1.473,0.596c0.145,0.06 0.29,0.111 0.426,0.179c0.119,0.051 0.23,0.111 0.34,0.17c0.06,0.034 0.119,0.076 0.17,0.111c0.111,0.068 0.213,0.144 0.298,0.238c0.06,0.06 0.111,0.119 0.153,0.179c0.077,0.102 0.137,0.213 0.171,0.34c0.067,0.213 0.077,0.469 -0,0.766c-0.017,0.068 -0.043,0.154 -0.077,0.23c-0.034,0.077 -0.068,0.162 -0.111,0.247c-0.017,0.034 -0.034,0.068 -0.051,0.094c-0.017,0.034 -0.042,0.059 -0.067,0.093c-0.044,0.06 -0.103,0.119 -0.162,0.179c-0.137,0.111 -0.307,0.212 -0.494,0.298c-0.094,0.042 -0.196,0.085 -0.298,0.119c-0.272,0.094 -0.57,0.179 -0.885,0.238c-0.153,0.035 -0.315,0.069 -0.469,0.094c-0.152,0.025 -0.314,0.059 -0.467,0.076c-0.12,0.026 -0.239,0.043 -0.35,0.06c-0.28,0.043 -0.552,0.085 -0.8,0.136c-0.127,0.017 -0.246,0.042 -0.357,0.069c-0.57,0.118 -0.987,0.272 -1.047,0.527c-0.161,0.655 -0.187,1.243 -0.111,1.788c0.017,0.127 0.043,0.255 0.068,0.374c0.052,0.204 0.111,0.392 0.188,0.579c0.034,0.093 0.068,0.187 0.111,0.272c0.28,0.596 0.672,1.123 1.123,1.609c0.187,0.204 0.374,0.4 0.57,0.587c0.213,0.213 0.434,0.409 0.647,0.613l0.332,0.306c0.137,0.12 0.272,0.238 0.4,0.366c0.085,0.085 0.162,0.162 0.238,0.238c0.102,0.102 0.205,0.205 0.299,0.307c0.068,0.077 0.135,0.153 0.203,0.23c0.069,0.076 0.128,0.153 0.188,0.23c0.119,0.152 0.229,0.314 0.323,0.476c0.034,0.059 0.068,0.128 0.102,0.196c0.086,0.204 0.12,0.425 0.12,0.664c-0,0.153 -0.017,0.306 -0.051,0.468c-0.017,0.077 -0.034,0.153 -0.051,0.238c-0.043,0.179 -0.103,0.357 -0.171,0.528c0,0.008 0,0.017 -0.008,0.017c-0.043,0.085 -0.077,0.178 -0.12,0.264c-0.042,0.085 -0.084,0.17 -0.136,0.255c-0.119,0.213 -0.247,0.4 -0.383,0.571c-0.008,0.017 -0.016,0.034 -0.034,0.042c-0.068,0.085 -0.144,0.17 -0.221,0.247c-0.085,0.085 -0.171,0.162 -0.255,0.221c-0.375,0.273 -0.784,0.392 -1.209,0.392c-0.11,-0 -0.23,-0.009 -0.34,-0.026c-0.035,-0.008 -0.069,-0.008 -0.111,-0.025c-0.111,-0.009 -0.23,-0.043 -0.349,-0.077c-0.988,-0.306 -1.992,-1.124 -2.766,-2.052c-0.145,-0.161 -0.281,-0.331 -0.4,-0.51c-0.077,-0.093 -0.145,-0.196 -0.213,-0.298c-0.06,-0.094 -0.119,-0.187 -0.17,-0.272c-0.086,-0.145 -0.171,-0.298 -0.247,-0.443c-0.034,-0.076 -0.068,-0.145 -0.102,-0.221c-0.06,-0.12 -0.102,-0.238 -0.145,-0.358c-0.043,-0.11 -0.077,-0.221 -0.102,-0.331c-0.324,-0.282 -0.621,-0.596 -0.893,-0.928c-0.128,-0.145 -0.248,-0.298 -0.358,-0.451c-0.12,-0.171 -0.238,-0.341 -0.349,-0.52c-0,-0.008 -0,-0.008 -0.009,-0.008m-69.776,54.515c0.026,-0.852 0.051,-1.703 0.086,-2.562c0.025,-0.86 0.068,-1.719 0.11,-2.578c0.026,-0.571 0.051,-1.141 0.086,-1.703c0.034,-0.571 0.059,-1.132 0.093,-1.702c0.655,-0.034 1.302,-0.077 1.958,-0.128c0.647,-0.051 1.293,-0.102 1.94,-0.171c0.655,-0.067 1.294,-0.144 1.941,-0.229c0.638,-0.077 1.277,-0.17 1.915,-0.272c0.706,-0.102 1.404,-0.222 2.093,-0.35c0.571,-0.11 1.141,-0.221 1.712,-0.34c1.881,-0.383 3.745,-0.842 5.583,-1.37c0.613,-0.17 1.226,-0.358 1.83,-0.545c1.115,-0.34 2.222,-0.715 3.319,-1.106c0.315,-0.111 0.63,-0.222 0.945,-0.349c0.715,-0.256 1.421,-0.528 2.128,-0.818c0.417,-0.161 0.834,-0.331 1.251,-0.51c0.068,-0.025 0.136,-0.052 0.196,-0.085c0.621,-0.264 1.242,-0.528 1.864,-0.809c0.655,-0.289 1.301,-0.587 1.941,-0.893c0.339,-0.162 0.68,-0.324 1.021,-0.494c1.055,-0.519 2.102,-1.056 3.132,-1.609c0.689,-0.366 1.379,-0.749 2.06,-1.14c0.714,-0.409 1.429,-0.826 2.136,-1.251c0.425,-0.247 0.851,-0.512 1.277,-0.775c2.306,-1.422 4.57,-2.945 6.783,-4.554c0.392,-0.28 0.783,-0.561 1.174,-0.859c1.388,-1.021 2.758,-2.085 4.103,-3.175c0.374,-0.298 0.74,-0.596 1.107,-0.91c0.629,-0.512 1.251,-1.03 1.863,-1.558c2.401,-2.052 4.844,-4.996 7.175,-6.809c0.664,-0.52 0.86,-0.86 1.567,-0.716c0.689,0.145 1.004,0.265 1.574,0.699c0.358,0.272 0.724,0.57 1.09,0.885c0.187,0.153 0.366,0.315 0.553,0.476c0.187,0.171 0.374,0.341 0.561,0.511c0.179,0.171 0.367,0.341 0.554,0.519c0.187,0.179 0.375,0.358 0.562,0.537c0.757,0.723 1.515,1.472 2.264,2.204c0.374,0.375 0.748,0.74 1.123,1.089c-0,0.009 -0,0.009 0.008,0c0.554,0.537 1.107,1.047 1.652,1.533c0.178,0.162 0.366,0.314 0.545,0.468c4.978,4.178 10.767,8.689 16.341,11.992c14.095,8.375 30.53,11.482 46.651,13.167c0.553,0.358 0.971,4.332 1.03,5.269c0.587,9.09 -1.064,18.844 -1.805,27.917c-0.314,0.366 -0.663,0.689 -1.029,0.97c-0.111,0.085 -0.222,0.162 -0.333,0.238c-0.731,0.511 -1.548,0.885 -2.382,1.218c-0.554,0.221 -1.116,0.425 -1.668,0.629c-0.282,0.102 -0.554,0.213 -0.826,0.324c-0.035,0.009 -0.12,0.255 -0.341,0.443c-0.077,0.059 -0.162,0.11 -0.263,0.153c-0.077,0.025 -0.179,0.068 -0.316,0.119c-0.068,0.025 -0.136,0.051 -0.221,0.076c-0.162,0.052 -0.341,0.119 -0.536,0.187c-1.311,0.444 -3.286,1.048 -3.566,0.767c0.059,-2.273 -0.086,-4.562 -0.017,-6.835c0.179,-6.349 1.497,-14.027 0.731,-20.282c-0.034,-0.239 -0.017,-0.494 -0.093,-0.716c-0.025,-0.084 -0.068,-0.17 -0.136,-0.238c-0.034,-0.042 -0.077,-0.068 -0.119,-0.102c-1.26,-0.136 -2.512,-0.289 -3.754,-0.468c-0.689,-0.093 -1.378,-0.204 -2.068,-0.315c-0.323,-0.051 -0.639,-0.102 -0.953,-0.162c-0.086,-0.008 -0.17,-0.025 -0.248,-0.042c-0.467,-0.077 -0.927,-0.162 -1.395,-0.256c-0.69,-0.127 -1.387,-0.263 -2.077,-0.408c-0.689,-0.153 -1.387,-0.306 -2.068,-0.46c-0.383,-0.093 -0.766,-0.179 -1.14,-0.272c-0.145,-0.025 -0.29,-0.069 -0.443,-0.102c-0.391,-0.094 -0.775,-0.196 -1.158,-0.298c-0.962,-0.247 -1.914,-0.511 -2.868,-0.792c-0.358,-0.101 -0.715,-0.212 -1.072,-0.323c-0.503,-0.153 -1.005,-0.306 -1.499,-0.468c-1.438,-0.451 -2.868,-0.945 -4.28,-1.473c-0.639,-0.229 -1.269,-0.476 -1.899,-0.723c-0.562,-0.222 -1.123,-0.451 -1.685,-0.681c-0.553,-0.221 -1.115,-0.46 -1.668,-0.706c-0.375,-0.162 -0.741,-0.324 -1.107,-0.494c-0.596,-0.264 -1.191,-0.536 -1.778,-0.817c-0.554,-0.264 -1.116,-0.528 -1.668,-0.809c-1.201,-0.587 -2.384,-1.209 -3.559,-1.855c-0.459,-0.256 -0.918,-0.511 -1.37,-0.767c-1.974,-1.114 -3.915,-2.314 -5.813,-3.574c-0.749,-0.502 -1.489,-1.013 -2.222,-1.532c-0.136,-0.085 -0.255,-0.17 -0.383,-0.264c-0.331,-0.238 -0.663,-0.476 -0.996,-0.723c-1.855,-1.354 -3.667,-2.775 -5.429,-4.273c-1.09,-0.92 -7.005,-6.835 -7.516,-6.835c-8.077,6.954 -16.308,14.078 -25.934,18.844c-3.073,1.524 -7.694,3.524 -10.954,4.443c-5.848,1.643 -12.095,1.6 -17.865,3.464c-2.017,9.21 -0.324,18.802 0.008,28.165c-0.246,0.272 -3.115,-1.278 -3.498,-1.396c-0.111,-0.034 -0.221,-0.068 -0.34,-0.094c-0.085,-0.017 -0.162,-0.034 -0.247,-0.043c-0.358,-0.076 -0.741,-0.119 -1.124,-0.17c-0.119,-0.017 -0.238,-0.034 -0.348,-0.051c-0.239,-0.034 -0.469,-0.076 -0.69,-0.136c-0.128,-0.034 -0.247,-0.068 -0.358,-0.111c-0.315,-0.111 -0.595,-0.263 -0.834,-0.485c-0.068,-0.06 -0.119,-0.128 -0.178,-0.204c-0.069,-0.085 -0.128,-0.179 -0.179,-0.281c-0.052,-0.102 -0.103,-0.213 -0.136,-0.332c-0.043,-0.119 -0.068,-0.247 -0.094,-0.391c-0.656,-4.315 -0.928,-10.555 -1.081,-14.998c-0.119,-3.378 -0.102,-6.783 -0.009,-10.179m227.049,75.376c3.557,-3.055 9.592,-8.077 6.528,-13.328c-3.022,-5.167 -12.265,-2.435 -16.853,-1.005c-4.195,1.302 -8.154,3.397 -12.41,4.545c2.486,-23.21 2.988,-49.45 -10.911,-69.35c-0.817,-1.166 -5.532,-6.698 -5.532,-7.413c19.117,-22.666 21.916,-58.175 1.762,-81.147c-0.111,-0.511 2.477,-2.043 3.149,-2.767c5.303,-5.719 2.689,-11.558 -4.869,-12.111c-0.596,-0.707 1.686,-6.758 -0.902,-9.064c-2.723,-2.435 -9.898,0.093 -13.311,0.357c-8.69,0.655 -16.053,-3.796 -24.292,-5.43c-30.896,-6.112 -79.061,7.592 -88.338,41.449c-1.167,4.265 -1.329,8.733 -2.384,13.006c-2.4,9.703 -10.877,15.482 -11.788,25.644c-0.23,2.597 0.97,9.201 0.017,10.852c-0.784,1.371 -5.337,4.035 -6.903,4.988c-7.336,4.468 -15.175,8.299 -23.542,10.384c-6.418,1.609 -13.099,2.264 -19.431,4.009c-0.188,4.936 -0.307,9.941 -0.179,14.886c0.11,4.171 1.719,19.968 0.314,22.674c-1.565,3.056 -4.808,4.614 -4.842,9.141c-0.043,4.503 4.97,22.777 7.702,26.215c2.035,2.571 3.822,2.213 6.052,3.737c2.996,2.051 6.451,13.72 8.222,17.661c7.762,17.244 30.198,42.999 47.272,51.357c3.753,1.839 4.451,1.396 8.06,-0.349c9.678,-4.681 16.87,-11.728 25.415,-17.61c9.252,-6.366 6.894,3.303 6.767,9.388c-3.754,-0.408 -16.274,-0.698 -18.113,3.048c-2.17,4.425 2.06,5.472 5.516,5.345c-0.128,2.774 -4.92,2.365 -2.605,5.932c3.03,4.673 12.572,-1.354 16.776,-1.737c3.992,-0.357 14.674,2.392 16.759,-1.08c2.826,-4.707 -4.834,-7.108 -7.431,-9.294l0.111,-12.717c0.408,-0.672 5.388,-2.664 6.494,-3.642c1.371,-1.234 3.941,-6.418 5.124,-6.767c1.166,-0.34 5.081,0.144 6.571,0.281c1.523,0.128 8.775,0.91 9.524,1.498c0.945,0.74 2.315,3.771 3.26,4.962c2.706,3.379 6.954,5.583 11.149,6.502c-0.187,1.499 0.324,2.92 0.4,4.325c0.486,9.208 -3.327,18.92 -0.467,27.746c1.991,6.12 8.571,5.149 8.494,-0.97l4.289,3.217c6.793,1.354 6.724,-5.064 4.869,-9.754c-2.928,-7.43 -5.822,-8.435 -6.707,-17.771c-0.144,-1.499 -0.681,-6.818 -0.026,-7.72c0.639,-0.868 3.346,-2.102 4.393,-2.954c2.417,-1.974 3.736,-4.791 5.029,-7.566c0.869,-1.856 2.12,-6.341 3.184,-7.652c0.562,-0.689 7.209,-3.839 8.264,-3.974c3.005,-0.409 7.039,0.825 10.121,1.013c9.055,0.535 31.125,-3.448 35.917,-12.002c2.937,-5.243 -0.17,-8.69 -5.668,-8.988" style="fill:#0c0d0e;fill-rule:nonzero;"/><path d="M78.196,127.033c-0.953,0.783 -1.931,1.541 -2.927,2.272c0.996,-0.723 1.974,-1.481 2.927,-2.264c0.92,-0.749 1.984,-1.659 3.081,-2.655c-1.097,0.987 -2.161,1.897 -3.081,2.647m53.46,65.231c0.162,0.408 0.358,0.808 0.579,1.191c-0.213,-0.391 -0.409,-0.783 -0.579,-1.191m0.332,-4.954c0.076,-0.119 0.145,-0.247 0.179,-0.374c-0.034,0.127 -0.094,0.255 -0.179,0.374m0.647,6.809c0.417,0.655 0.885,1.268 1.362,1.822c-0.221,0.604 -0.451,1.208 -0.682,1.804c0.239,-0.596 0.469,-1.192 0.69,-1.796l0,-0.008c-0.468,-0.554 -0.945,-1.167 -1.37,-1.822" style="fill:#575656;fill-rule:nonzero;"/><path d="M114.846,185.361l0,-0.009c0.009,-0.008 0.026,-0.008 0.034,-0.017c-0.017,0.009 -0.025,0.017 -0.034,0.026m25.798,-12.154l1.064,-12.401l-0.171,-12.784c-0.008,-0.018 -0.025,-0.026 -0.042,-0.043c-0.025,-0.026 -0.051,-0.034 -0.093,-0.051c-0.171,-0.085 -0.503,-0.187 -0.937,-0.306c-0.17,-0.052 -0.366,-0.094 -0.57,-0.145c-2.341,-0.596 -6.443,-1.396 -7.371,-1.643c-17.363,-4.63 -33.969,-13.499 -44.701,-28.232c-0.851,1.115 -2.001,2.384 -3.269,3.66c-0.842,0.851 -1.736,1.702 -2.621,2.519c-0.221,0.205 -0.443,0.409 -0.655,0.605c-1.098,0.996 -2.163,1.906 -3.082,2.655c-0.953,0.783 -1.932,1.541 -2.927,2.264c-0.332,0.247 -0.665,0.485 -0.996,0.724c-0.673,0.476 -1.345,0.944 -2.026,1.395c-0.69,0.46 -1.37,0.903 -2.068,1.337c-8.341,5.192 -17.585,8.835 -27.151,11.286c-0.911,20.768 1.83,42.582 8.758,62.218c4.562,12.92 9.924,21.908 17.848,32.871c0.102,0.152 0.213,0.289 0.298,0.434c0.102,0.153 0.187,0.306 0.255,0.476c0.06,0.128 0.102,0.264 0.119,0.417c0.017,0.077 0.026,0.153 0.026,0.238c4.272,4.137 10.622,10.691 16.095,12.938c0.017,-0.86 0.97,-1.294 1.583,-1.737c0.766,-0.544 1.54,-1.089 2.315,-1.617c0.775,-0.536 1.558,-1.064 2.332,-1.592c1.558,-1.063 3.098,-2.144 4.579,-3.302c12.163,-9.49 22.759,-21.67 30.301,-35.338c1.251,-2.274 2.425,-4.597 3.506,-6.946c0.537,-1.183 1.055,-2.366 1.55,-3.558c0.246,-0.604 0.484,-1.2 0.723,-1.804c0.229,-0.596 0.459,-1.2 0.681,-1.804c-0.477,-0.554 -0.945,-1.167 -1.362,-1.822c-0.145,-0.213 -0.272,-0.434 -0.4,-0.663c-0.221,-0.384 -0.417,-0.784 -0.579,-1.192c-0.476,-1.2 -0.689,-2.485 -0.383,-3.771c0.017,-0.085 0.042,-0.161 0.077,-0.23c0.042,-0.11 0.11,-0.213 0.169,-0.314c0.061,-0.103 0.128,-0.188 0.206,-0.282c0.042,-0.059 0.093,-0.118 0.135,-0.179c0.051,-0.059 0.094,-0.118 0.128,-0.178c0.076,-0.119 0.144,-0.247 0.179,-0.374c0.051,-0.179 0.085,-0.349 0.11,-0.503c0.077,-0.536 0.009,-0.961 -0.118,-1.344c-0.095,-0.273 -0.214,-0.52 -0.341,-0.766c-0.086,-0.171 -0.171,-0.333 -0.255,-0.503c-0.027,-0.059 -0.06,-0.127 -0.086,-0.187c-0.059,-0.127 -0.11,-0.255 -0.153,-0.391c-0.043,-0.137 -0.077,-0.281 -0.102,-0.434c-0.988,-6.06 5.064,-7.686 9.422,-9.601" style="fill:#575656;fill-rule:nonzero;"/><path d="M156.751,151.018l-1.762,16.248c-0.034,0.008 -0.119,0.256 -0.34,0.443c-0.077,0.059 -0.162,0.11 -0.265,0.152c-0.076,0.026 -0.178,0.069 -0.314,0.12c-0.068,0.025 -0.137,0.051 -0.221,0.076c-0.162,0.051 -0.341,0.12 -0.537,0.188c-1.31,0.442 -3.285,1.046 -3.566,0.766c0.06,-2.273 -0.085,-4.562 -0.017,-6.835c0.179,-6.35 1.498,-14.026 0.732,-20.283c-0.034,-0.238 -0.017,-0.493 -0.093,-0.714c-0.026,-0.086 -0.069,-0.171 -0.137,-0.238c-0.034,-0.043 -0.076,-0.069 -0.119,-0.103c-1.26,-0.136 -2.511,-0.289 -3.754,-0.468c-0.689,-0.094 -1.379,-0.204 -2.068,-0.315c-0.323,-0.051 -0.638,-0.102 -0.953,-0.161c-0.085,-0.009 -0.17,-0.026 -0.247,-0.043c-0.468,-0.077 -0.927,-0.161 -1.396,-0.256c-0.689,-0.127 -1.387,-0.263 -2.077,-0.408c-0.689,-0.153 -1.386,-0.306 -2.068,-0.46c-0.383,-0.094 -0.766,-0.178 -1.14,-0.272c-0.145,-0.026 -0.29,-0.068 -0.443,-0.102c-0.391,-0.093 -0.774,-0.196 -1.157,-0.298c-0.962,-0.247 -1.916,-0.511 -2.868,-0.791c-0.358,-0.103 -0.716,-0.213 -1.073,-0.324c-0.502,-0.153 -1.004,-0.306 -1.498,-0.468c-1.439,-0.451 -2.869,-0.945 -4.281,-1.472c-0.639,-0.23 -1.269,-0.477 -1.898,-0.724c-0.562,-0.221 -1.124,-0.451 -1.685,-0.681c-0.554,-0.221 -1.116,-0.459 -1.668,-0.707c-0.375,-0.161 -0.741,-0.323 -1.107,-0.493c-0.596,-0.264 -1.192,-0.536 -1.779,-0.817c-0.553,-0.264 -1.115,-0.528 -1.669,-0.809c-1.199,-0.587 -2.382,-1.208 -3.557,-1.855c-0.459,-0.255 -0.919,-0.511 -1.371,-0.766c-1.974,-1.115 -3.915,-2.315 -5.813,-3.575c-0.749,-0.502 -1.489,-1.013 -2.221,-1.532c-0.137,-0.085 -0.255,-0.171 -0.383,-0.264c-0.332,-0.238 -0.664,-0.476 -0.996,-0.724c-1.856,-1.352 -3.669,-2.774 -5.43,-4.272c-1.09,-0.919 -7.005,-6.835 -7.516,-6.835c-8.077,6.954 -16.308,14.078 -25.934,18.844c-3.072,1.524 -7.694,3.524 -10.954,4.443c-5.847,1.643 -12.094,1.601 -17.865,3.465c-2.017,9.209 -0.323,18.801 0.009,28.164c-0.248,0.272 -3.116,-1.277 -3.498,-1.396c-0.111,-0.035 -0.222,-0.069 -0.341,-0.094c-0.085,-0.017 -0.162,-0.034 -0.247,-0.043c-0.357,-0.076 -0.74,-0.119 -1.123,-0.17c-0.119,-0.017 -0.239,-0.034 -0.35,-0.051c-0.238,-0.034 -0.468,-0.076 -0.689,-0.136c-0.128,-0.034 -0.246,-0.068 -0.357,-0.11c-0.315,-0.111 -0.596,-0.265 -0.835,-0.486c-0.059,-0.059 -0.118,-0.127 -0.178,-0.204c-0.068,-0.085 -0.128,-0.179 -0.179,-0.281c-0.051,-0.102 -0.102,-0.213 -0.136,-0.332c-0.042,-0.119 -0.068,-0.247 -0.094,-0.392c-0.655,-4.315 -0.927,-10.553 -1.081,-14.996c-0.118,-3.379 -0.101,-6.784 -0.008,-10.18c0.025,-0.851 0.051,-1.702 0.085,-2.562c0.026,-0.859 0.068,-1.719 0.111,-2.579c0.051,-1.14 0.119,-2.272 0.179,-3.404c0.655,-0.034 1.301,-0.077 1.957,-0.128c0.647,-0.051 1.294,-0.102 1.941,-0.17c0.655,-0.068 1.293,-0.145 1.94,-0.23c0.638,-0.076 1.277,-0.17 1.915,-0.272c0.707,-0.103 1.405,-0.221 2.094,-0.349c0.57,-0.102 1.141,-0.213 1.711,-0.341c1.881,-0.382 3.745,-0.843 5.584,-1.37c0.612,-0.17 1.225,-0.357 1.829,-0.545c1.115,-0.341 2.221,-0.714 3.32,-1.106c0.314,-0.111 0.63,-0.221 0.944,-0.349c0.715,-0.255 1.421,-0.528 2.128,-0.817c0.417,-0.162 0.834,-0.332 1.251,-0.511c0.068,-0.026 0.137,-0.051 0.196,-0.085c0.63,-0.255 1.243,-0.528 1.864,-0.809c0.655,-0.289 1.302,-0.587 1.94,-0.893c0.341,-0.162 0.682,-0.324 1.022,-0.494c1.056,-0.519 2.103,-1.056 3.132,-1.609c0.689,-0.365 1.379,-0.748 2.06,-1.14c0.715,-0.4 1.43,-0.817 2.136,-1.251c0.426,-0.247 0.851,-0.511 1.277,-0.775c2.307,-1.421 4.571,-2.944 6.784,-4.553c0.391,-0.282 0.783,-0.562 1.174,-0.86c1.387,-1.021 2.758,-2.086 4.102,-3.175c0.375,-0.297 0.741,-0.596 1.107,-0.911c0.63,-0.51 1.251,-1.029 1.864,-1.557c2.4,-2.051 4.843,-4.996 7.175,-6.809c0.664,-0.519 0.859,-0.86 1.566,-0.715c-0.477,0.221 -0.246,0.834 -0.349,1.047l5.26,8.213c15.559,18.342 38.803,26.76 62.269,29.364c1.336,0.86 0.962,13.576 1.047,15.772" style="fill:#0172f0;fill-rule:nonzero;"/><path d="M153.312,168.245c0.196,-0.068 0.375,-0.137 0.537,-0.188c-0.154,0.06 -0.341,0.12 -0.537,0.188" style="fill:#121c2a;fill-rule:nonzero;"/><path d="M154.649,167.709c-0.077,0.067 -0.162,0.119 -0.264,0.161c-0.069,0.026 -0.179,0.068 -0.315,0.111c0.136,-0.051 0.238,-0.094 0.315,-0.119c0.102,-0.042 0.187,-0.094 0.264,-0.153" style="fill:#121c2a;fill-rule:nonzero;"/><path d="M143.797,206.784c-9.542,23.006 -28.138,40.982 -48.864,54.141c-3.149,1.999 -6.716,3.583 -9.558,6.009c-3.516,-2.136 -9.388,-5.848 -11.89,-8.75c-7.975,-5.907 -15.244,-13.686 -21.134,-21.713c-4.682,-6.357 -9.209,-13.89 -12.512,-21.065c-1.191,-2.57 -3.991,-8.46 -4.4,-10.979c-0.085,-0.528 -0.111,-0.971 -0.094,-1.345c0,-0.06 0.009,-0.12 0.017,-0.179c0,-0.068 0.009,-0.128 0.026,-0.187c0.008,-0.068 0.025,-0.119 0.034,-0.179c0.034,-0.171 0.085,-0.315 0.153,-0.451c0.034,-0.068 0.059,-0.128 0.102,-0.188c0.034,-0.059 0.077,-0.118 0.111,-0.17c0.043,-0.059 0.085,-0.11 0.136,-0.161c0.059,-0.077 0.127,-0.136 0.196,-0.196c0.136,-0.119 0.297,-0.23 0.468,-0.341c0.604,-0.374 1.387,-0.706 2.264,-1.242c0.29,-0.179 0.604,-0.528 0.987,-0.843c0.086,-0.077 0.179,-0.145 0.281,-0.212c0.196,-0.137 0.417,-0.248 0.656,-0.307c0.162,-0.034 0.331,-0.051 0.519,-0.034c5.14,18.538 16.418,36.675 30.973,49.289c2.468,2.145 11.932,9.515 14.673,9.814c3.839,0.425 10.469,-3.728 13.729,-5.873c0.672,-0.443 1.345,-0.902 2.017,-1.379c0.672,-0.477 1.345,-0.97 2.017,-1.481c0.451,-0.34 0.894,-0.689 1.345,-1.047c0.902,-0.706 1.796,-1.447 2.69,-2.213c2.213,-1.898 4.417,-3.958 6.562,-6.137c0.306,-0.306 0.613,-0.621 0.919,-0.936c0.349,-0.357 0.69,-0.715 1.021,-1.073c1.388,-1.472 2.75,-2.978 4.06,-4.528c0.332,-0.383 0.664,-0.765 0.979,-1.157c0.298,-0.349 0.587,-0.698 0.868,-1.047c0.443,-0.536 0.868,-1.064 1.285,-1.608c0.554,-0.69 1.09,-1.388 1.617,-2.086c0.273,-0.348 0.528,-0.698 0.783,-1.047c0.384,-0.502 0.75,-1.004 1.107,-1.515c0.357,-0.484 0.698,-0.978 1.039,-1.472c0.468,-0.681 0.936,-1.353 1.378,-2.034c0.375,-0.562 0.741,-1.124 1.098,-1.685c0.323,-0.503 0.63,-1.005 0.936,-1.507c0.265,-0.417 0.52,-0.843 0.766,-1.268c0.085,-0.137 0.171,-0.281 0.247,-0.417c0.486,-0.817 0.945,-1.626 1.379,-2.435c0.196,-0.349 0.383,-0.697 0.562,-1.046c0.179,-0.316 0.34,-0.63 0.493,-0.945c0.486,-0.945 0.946,-1.873 1.371,-2.792c0.613,-1.328 2.247,-6.622 3.073,-7.073c1.225,-0.655 1.634,2.468 2.042,3.235c0.136,0.263 1.345,1.779 1.473,1.855" style="fill:#0172f0;fill-rule:nonzero;"/><path d="M41.295,198.383l-0,0.009c-0.187,-0.017 -0.358,-0 -0.52,0.034c0.162,-0.043 0.333,-0.06 0.52,-0.043" style="fill:#121c2a;fill-rule:nonzero;"/><path d="M143.794,101.866c-8.204,-2.759 -15.574,-1.799 -23.528,1.135c-2.409,0.885 -10.556,5.213 -12.337,5.136c-1.226,-0.053 -5.76,-4.471 -6.811,-5.571c-0.598,-0.623 -1.529,-0.423 -1.764,-2.255c-0.816,-6.385 9.46,-15.797 14.6,-18.657c4.282,-2.387 9.302,-3.62 14.098,-2.167c9.146,2.766 14.39,13.588 15.742,22.379" style="fill:#575656;fill-rule:nonzero;"/><path d="M88.521,116.555c-0.239,0.341 -0.443,0.716 -0.699,1.047c-0.851,1.116 -1.999,2.384 -3.267,3.66c-0.844,0.851 -1.737,1.702 -2.622,2.519c-0.221,0.204 -0.442,0.409 -0.655,0.605c-1.099,0.995 -2.162,1.907 -3.082,2.655c-0.953,0.783 -1.932,1.541 -2.928,2.264c-0.331,0.247 -0.663,0.486 -0.996,0.724c-0.672,0.476 -1.344,0.944 -2.025,1.396c-0.69,0.459 -1.37,0.902 -2.069,1.336c-8.34,5.192 -17.584,8.834 -27.15,11.286c-0.911,20.768 1.83,42.582 8.757,62.217c4.563,12.921 9.925,21.909 17.849,32.871c0.102,0.154 0.213,0.29 0.298,0.434c0.102,0.154 0.187,0.307 0.255,0.477c0.052,0.136 0.094,0.273 0.119,0.417c0.017,0.077 0.026,0.153 0.026,0.239c-1.464,-1.422 -2.851,-2.758 -4.17,-4.103c-0.273,-0.281 -0.545,-0.562 -0.817,-0.843c-0.239,-0.247 -0.469,-0.493 -0.707,-0.74c-1.626,-1.754 -3.183,-3.592 -4.733,-5.745c-0.646,-0.903 -1.421,-2.034 -2.264,-3.354c-0.101,-0.161 -0.212,-0.331 -0.323,-0.502c-0.34,-0.536 -0.689,-1.097 -1.056,-1.685c-0.323,-0.528 -0.655,-1.081 -0.995,-1.643c-0.239,-0.4 -0.477,-0.8 -0.715,-1.217c-0.485,-0.825 -0.979,-1.685 -1.481,-2.562c-0.996,-1.761 -2,-3.625 -2.988,-5.515c-0.246,-0.477 -0.484,-0.945 -0.723,-1.422c-1.336,-2.63 -2.596,-5.311 -3.694,-7.898c-0.289,-0.707 -0.578,-1.396 -0.843,-2.076c0,-0.009 0,-0.009 -0.008,-0.009c-0.239,-0.622 -0.468,-1.226 -0.681,-1.821c-0.604,-1.66 -1.098,-3.252 -1.472,-4.724c-0.179,-0.758 -0.333,-1.473 -0.451,-2.162l-0,-0.017c-0.026,-0.188 -0.052,-0.358 -0.077,-0.537c-0.026,-0.169 -0.043,-0.34 -0.06,-0.51c-0.017,-0.086 -0.017,-0.17 -0.025,-0.255c-0.009,-0.086 -0.017,-0.162 -0.026,-0.248c-0.008,-0.135 -0.017,-0.272 -0.025,-0.408l-0,-0.077c-0.017,-0.4 -0.008,-0.774 0.008,-1.14c0.017,-0.213 0.043,-0.426 0.077,-0.63c0.017,-0.127 0.042,-0.255 0.068,-0.374c-0,-0.009 0.008,-0.018 -0,-0.026c0.034,-0.127 0.068,-0.247 0.094,-0.366c0.068,-0.247 0.153,-0.477 0.229,-0.698c0.051,-0.119 0.094,-0.23 0.145,-0.349c0.043,-0.11 0.094,-0.221 0.136,-0.323c0.102,-0.221 0.196,-0.434 0.29,-0.647c0.085,-0.179 0.162,-0.358 0.23,-0.545c0.093,-0.204 0.17,-0.408 0.229,-0.621c0.034,-0.102 0.068,-0.196 0.085,-0.298c0.035,-0.102 0.06,-0.204 0.077,-0.315c0.009,-0.017 0.009,-0.034 0.009,-0.059c0.033,-0.137 0.05,-0.273 0.059,-0.409c0.017,-0.069 0.017,-0.145 0.017,-0.213c0.017,-0.102 0.017,-0.204 0.017,-0.307c-0,-0.118 -0.009,-0.246 -0.017,-0.374c-0,-0.093 -0.017,-0.196 -0.034,-0.298c-0.009,-0.102 -0.025,-0.204 -0.051,-0.315c-0.017,-0.102 -0.034,-0.213 -0.068,-0.323c-0.026,-0.111 -0.051,-0.221 -0.085,-0.341c-0.017,-0.051 -0.034,-0.101 -0.051,-0.145c-0.009,-0.042 -0.026,-0.084 -0.052,-0.118c-0.042,-0.12 -0.093,-0.222 -0.152,-0.333c-0,-0.016 -0.017,-0.042 -0.026,-0.059c-0.068,-0.119 -0.136,-0.238 -0.213,-0.358c-0.077,-0.127 -0.162,-0.255 -0.247,-0.383c-0.204,-0.323 -0.409,-0.655 -0.561,-1.021c-0.034,-0.068 -0.06,-0.144 -0.086,-0.221c-0.025,-0.077 -0.051,-0.153 -0.068,-0.238c-0.008,-0.034 -0.017,-0.068 -0.025,-0.111c-0.017,-0.043 -0.017,-0.085 -0.026,-0.136c-0.016,-0.086 -0.025,-0.17 -0.033,-0.264c-0.027,-0.332 -0.01,-0.681 0.025,-1.021c0.042,-0.443 0.127,-0.903 0.213,-1.354l-0,-0.008c0.076,-0.349 0.152,-0.698 0.221,-1.039l-0,-0.008c0.051,-0.238 0.093,-0.468 0.136,-0.698c0.043,-0.239 0.077,-0.468 0.111,-0.706c0.025,-0.179 0.042,-0.358 0.051,-0.537c0.033,-0.409 0.033,-0.809 -0.017,-1.199c-0.026,-0.231 -0.068,-0.461 -0.128,-0.682c-0.051,-0.221 -0.128,-0.442 -0.23,-0.664l-0,-0.008c-0.102,-0.221 -0.213,-0.442 -0.357,-0.655c-0.094,-0.145 -0.196,-0.29 -0.315,-0.434c-0.12,-0.145 -0.247,-0.29 -0.383,-0.426c-1.268,-1.277 -2.996,-1.311 -4.034,-2.375c-0.052,-0.042 -0.094,-0.094 -0.137,-0.145c-0.34,-0.4 -0.587,-0.935 -0.698,-1.702c-0.187,-1.293 -0.323,-2.783 -0.426,-4.332c-0.11,-1.617 -0.187,-3.294 -0.238,-4.851c-0.008,-0.468 -0.025,-0.929 -0.042,-1.379c-0.009,-0.443 -0.017,-0.877 -0.034,-1.285c-0.034,-1.226 -0.06,-2.46 -0.06,-3.694l-0,-0.06c-0,-0.69 0.009,-1.37 0.026,-2.059l0,-0.027c0.009,-0.697 0.034,-1.386 0.068,-2.085c0.068,-1.387 0.179,-2.766 0.341,-4.136c19.439,-2 37.075,-11.865 51.408,-24.665c0.306,-0.162 0.527,-0.231 0.681,-0.231c0.077,0 0.136,0.017 0.187,0.052l0.008,-0l0.077,0.076c0.017,0.025 0.034,0.059 0.043,0.085c0.008,0.034 0.025,0.068 0.025,0.102c0.009,0.017 0.009,0.043 0.009,0.068l-0,0.026c0.008,0.111 0.008,0.221 0.008,0.281c0,0.034 0,0.051 0.009,0.059" style="fill:#9d9c9c;fill-rule:nonzero;"/><path d="M161.228,163.887c-0.315,0.366 -0.664,0.689 -1.03,0.97c-0.11,0.085 -0.221,0.162 -0.332,0.239c-0.732,0.51 -1.549,0.885 -2.383,1.217c-0.553,0.221 -1.115,0.417 -1.668,0.63c-0.281,0.101 -0.553,0.212 -0.826,0.323l1.762,-16.248c-0.085,-2.196 0.29,-14.912 -1.047,-15.772c-23.466,-2.604 -46.71,-11.022 -62.269,-29.363l-5.26,-8.215c0.103,-0.212 -0.128,-0.825 0.349,-1.046c0.689,0.145 1.005,0.264 1.574,0.698c0.358,0.272 0.724,0.57 1.09,0.885c0.188,0.153 0.366,0.315 0.553,0.476c0.187,0.171 0.375,0.341 0.562,0.511c0.179,0.171 0.366,0.34 0.553,0.519c0.188,0.179 0.375,0.358 0.562,0.537c0.757,0.723 1.515,1.472 2.264,2.204c0.375,0.375 0.749,0.74 1.123,1.09c0,0.008 0,0.008 0.009,-0c0.553,0.545 1.107,1.055 1.651,1.532c0.179,0.161 0.366,0.314 0.545,0.468c4.979,4.179 10.767,8.69 16.342,11.992c14.095,8.375 30.53,11.482 46.651,13.167c0.553,0.358 0.97,4.333 1.029,5.269c0.588,9.09 -1.063,18.844 -1.804,27.917" style="fill:#17539d;fill-rule:nonzero;"/><path d="M254.338,218.32c-0.809,2.205 -6.197,5.704 -8.442,6.775c-1.921,0.92 -10.647,4.065 -12.373,4.065l-18.716,-0l3.848,-5.245c1.383,-1.898 3.077,-4.121 4.096,-6.222c0.931,-1.918 2.923,-9.32 3.686,-10.128c0.508,-0.539 10.413,-4.111 11.977,-4.639c3.088,-1.043 13.757,-4.8 16.19,-2.36c3.06,3.074 -5.819,8.791 -7.857,9.992c-4.534,2.671 -9.561,3.074 -13.066,5.122c-1.565,0.914 -2.24,2.406 -0.08,2.913c3.76,0.879 13.371,-2.258 17.803,-2.678c2.468,-0.231 3.97,-0.431 2.934,2.405" style="fill:#2b2b2b;fill-rule:nonzero;"/><path d="M148.725,210.103c0.008,0.12 -0.009,0.256 -0.034,0.417c-0.026,0.137 -0.06,0.273 -0.111,0.434c-0.043,0.154 -0.102,0.316 -0.161,0.486c-0.035,0.093 -0.069,0.178 -0.103,0.272c-0.076,0.179 -0.153,0.375 -0.238,0.571c-0.076,0.169 -0.153,0.34 -0.247,0.527c-0.06,0.136 -0.119,0.263 -0.187,0.4c-0.204,0.417 -0.434,0.859 -0.673,1.302c-0.348,0.656 -0.715,1.311 -1.064,1.924c-0.544,0.962 -1.047,1.804 -1.361,2.332c-0.009,0.025 -0.025,0.06 -0.043,0.085c-0.511,0.868 -1.039,1.745 -1.591,2.613c-0.605,0.979 -1.243,1.966 -1.907,2.945c-0.988,1.472 -2.026,2.945 -3.115,4.408c-0.358,0.495 -0.723,0.979 -1.098,1.465c-0.741,0.97 -1.498,1.932 -2.272,2.894c-0.69,0.851 -1.388,1.702 -2.112,2.544c-0.357,0.426 -0.723,0.843 -1.089,1.268c-1.592,1.839 -3.251,3.643 -4.962,5.414c-0.298,0.315 -0.604,0.621 -0.911,0.927c-0.298,0.316 -0.604,0.622 -0.919,0.928c-0.273,0.281 -0.562,0.562 -0.842,0.835c-2.341,2.306 -4.759,4.527 -7.235,6.638c-0.357,0.307 -0.707,0.604 -1.064,0.894c-0.23,0.204 -0.451,0.392 -0.689,0.579c-0.23,0.187 -0.46,0.374 -0.69,0.561c-1.566,1.295 -3.158,2.529 -4.766,3.711c-0.46,0.349 -0.928,0.682 -1.388,1.013c-0.008,0.017 -0.025,0.026 -0.034,0.026c-0.587,0.426 -1.175,0.843 -1.77,1.251c-0.195,0.136 -0.4,0.272 -0.596,0.409c-0.34,0.238 -0.689,0.468 -1.029,0.689c-0.358,0.247 -0.716,0.485 -1.082,0.715c-1.004,0.656 -2.008,1.285 -3.012,1.898c-0.605,0.358 -1.201,0.715 -1.805,1.055c-0.511,0.298 -1.013,0.588 -1.524,0.86c-0.697,0.383 -1.387,0.758 -2.076,1.115c-2.614,1.353 -5.499,3.03 -8.401,1.54c-0.698,-0.357 -0.954,-1.004 -1.149,-1.114c2.842,-2.426 6.409,-4.009 9.558,-6.01c20.726,-13.158 39.322,-31.134 48.864,-54.14c0.059,0.034 0.187,0.043 0.357,0.051c0.111,0.009 0.23,0.017 0.367,0.034c0.186,0.025 0.39,0.077 0.561,0.179c1.251,0.758 3.558,1.609 3.643,3.055" style="fill:#17539d;fill-rule:nonzero;"/><path d="M147.325,150.652c0.009,0.766 0,1.608 -0.025,2.493c0,0.239 -0.008,0.477 -0.017,0.716c0,0.348 -0.008,0.697 -0.025,1.055c-0.009,0.298 -0.017,0.596 -0.027,0.902c-0.008,0.247 -0.017,0.494 -0.025,0.741c-0.008,0.246 -0.017,0.501 -0.034,0.757c-0.017,0.349 -0.034,0.706 -0.051,1.064c-0.008,0.179 -0.017,0.349 -0.025,0.519c-0.009,0.213 -0.017,0.425 -0.034,0.638c-0.009,0.222 -0.018,0.443 -0.035,0.665c-0.017,0.204 -0.025,0.408 -0.042,0.612c-0.034,0.613 -0.077,1.218 -0.127,1.813c-0.017,0.195 -0.027,0.391 -0.044,0.587c-0.042,0.545 -0.084,1.073 -0.144,1.6c-0.017,0.205 -0.034,0.409 -0.06,0.605c0,0.034 0,0.068 -0.008,0.102c-0.034,0.323 -0.068,0.638 -0.102,0.944c-0.043,0.409 -0.094,0.801 -0.145,1.184c-0.034,0.255 -0.068,0.502 -0.102,0.741c-0.008,0.084 -0.017,0.161 -0.034,0.238c-0.017,0.162 -0.043,0.314 -0.068,0.468c-0.009,0.042 -0.017,0.094 -0.026,0.145c-0.008,0.05 -0.017,0.093 -0.025,0.136c-0.009,0.042 -0.017,0.085 -0.034,0.127c-0.026,0.094 -0.052,0.187 -0.077,0.272c-0.034,0.103 -0.068,0.205 -0.102,0.299c-0.034,0.093 -0.076,0.187 -0.119,0.272c-0.043,0.085 -0.094,0.17 -0.136,0.256c-0.052,0.076 -0.103,0.152 -0.153,0.221c-0.051,0.076 -0.111,0.144 -0.171,0.213c-0.051,0.067 -0.11,0.135 -0.179,0.187c-0.195,0.204 -0.408,0.365 -0.646,0.502c-0.009,0.008 -0.017,0.017 -0.034,0.017c-0.086,0.051 -0.171,0.102 -0.255,0.145c-0.128,0.067 -0.265,0.135 -0.401,0.187c-0.136,0.059 -0.272,0.119 -0.417,0.17c-0.298,0.111 -0.604,0.213 -0.919,0.315c-0.154,0.042 -0.298,0.094 -0.451,0.145c-0.154,0.051 -0.298,0.101 -0.451,0.153c-0.12,0.034 -0.23,0.076 -0.349,0.119c-0.188,0.077 -0.375,0.145 -0.562,0.23l1.064,-12.401l-0.17,-12.784l-0,-0.009c-0.008,-0.017 -0.026,-0.025 -0.043,-0.034c-0.026,-0.025 -0.051,-0.034 -0.093,-0.051c-0.171,-0.085 -0.503,-0.187 -0.937,-0.307c-0.17,-0.05 -0.365,-0.093 -0.57,-0.144c-2.341,-0.596 -6.443,-1.396 -7.37,-1.643c-17.364,-4.63 -33.969,-13.498 -44.702,-28.231c0.255,-0.333 0.459,-0.707 0.698,-1.048c0.076,0.052 0.765,-0.034 1.234,0.332c12.051,9.55 23.014,17.857 36.93,22.479c0.979,0.323 1.967,0.63 2.971,0.919c0.749,0.222 1.515,0.425 2.29,0.612c2.314,0.588 4.723,1.065 7.225,1.439c0.154,0.017 0.298,0.043 0.451,0.06c0.171,0.017 0.341,0.042 0.512,0.059c2.238,0.247 4.51,0.255 6.655,0.656c-0.068,1.863 0.273,3.94 0.442,5.856c0.052,0.587 0.094,1.148 0.094,1.685" style="fill:#3e3d3d;fill-rule:nonzero;"/><path d="M24.502,128.446l0.008,-0c-0.059,1.132 -0.128,2.264 -0.178,3.405c0.05,-1.141 0.111,-2.273 0.17,-3.405" style="fill:#6f7787;fill-rule:nonzero;"/><path d="M136.61,202.503c-0.102,0.323 -0.23,0.655 -0.358,0.996c-0.076,0.195 -0.153,0.391 -0.238,0.587c-0.281,0.681 -0.605,1.378 -0.945,2.077c-0.136,0.289 -0.281,0.57 -0.426,0.851c-0.135,0.289 -0.289,0.562 -0.434,0.842c-0.289,0.545 -0.57,1.081 -0.851,1.575c-0.068,0.127 -0.136,0.247 -0.204,0.366c-0.468,0.843 -0.885,1.574 -1.192,2.111c-0.51,0.893 -1.03,1.787 -1.557,2.664c-1.055,1.762 -2.145,3.489 -3.277,5.183c-1.132,1.693 -2.298,3.345 -3.506,4.971c-6.648,8.903 -14.495,16.707 -23.79,23.253c-0.332,0.238 -0.757,0.536 -1.251,0.868c-0.153,0.102 -0.306,0.212 -0.477,0.332c-1.115,0.766 -2.493,1.676 -3.889,2.51c-0.188,0.111 -0.375,0.23 -0.562,0.341c-0.63,0.366 -1.26,0.715 -1.864,1.021c-0.187,0.094 -0.366,0.188 -0.545,0.273c-0.978,0.467 -1.872,0.808 -2.587,0.936c-0.069,0.009 -0.136,0.017 -0.196,0.026c-0.042,0.017 -0.094,0.017 -0.136,0.017c-0.077,0.008 -0.154,0.017 -0.221,0.008c-0.034,0.009 -0.06,0.009 -0.085,0.009c-0.052,-0 -0.094,-0.009 -0.137,-0.017c-0.051,-0 -0.093,-0.009 -0.136,-0.017c-0.085,-0.009 -0.161,-0.034 -0.238,-0.06c-0.145,-0.051 -0.272,-0.111 -0.392,-0.179c-0.068,-0.042 -0.136,-0.094 -0.213,-0.136c-0.067,-0.051 -0.136,-0.093 -0.212,-0.136c-0.085,-0.051 -0.171,-0.094 -0.264,-0.136c0.017,-0.86 0.97,-1.294 1.583,-1.737c0.766,-0.544 1.54,-1.089 2.315,-1.617c0.775,-0.536 1.558,-1.064 2.332,-1.591c1.558,-1.065 3.098,-2.145 4.58,-3.302c12.162,-9.491 22.759,-21.67 30.3,-35.34c1.251,-2.272 2.426,-4.596 3.506,-6.945c0.536,-1.183 1.056,-2.366 1.549,-3.557c0.247,-0.605 0.486,-1.201 0.724,-1.805c0.229,-0.596 0.459,-1.2 0.68,-1.804l0.009,0.008c0.153,0.179 0.349,0.366 0.562,0.545c0.145,0.127 0.298,0.255 0.451,0.382c0.238,0.196 0.494,0.4 0.732,0.613c0.154,0.128 0.289,0.265 0.426,0.4c0.212,0.213 0.408,0.443 0.562,0.682c-0,-0 0.008,-0 0.008,0.008c0.051,0.076 0.093,0.162 0.136,0.238c0.008,0.017 0.017,0.034 0.025,0.051c0.018,0.051 0.043,0.103 0.06,0.145c0.026,0.059 0.043,0.11 0.06,0.17c0.008,0.026 0.017,0.051 0.025,0.077c0.009,0.025 0.025,0.051 0.025,0.076c0.179,0.775 -0.033,1.899 -0.467,3.167" style="fill:#3e3d3d;fill-rule:nonzero;"/><path d="M142.036,104.839c-2.99,7.331 -13.287,11.641 -20.821,11.032c-2.909,-0.235 -3.368,-1.394 -5.406,-2.461c-1.435,-0.754 -2.615,-1.121 -4.058,-1.709c-0.843,-0.347 -0.672,-1.023 -0.143,-1.618c0.273,-0.301 3.61,-1.698 4.314,-1.985c7.32,-2.969 15.005,-5.332 22.977,-4.131c0.567,0.084 3.126,0.469 3.137,0.872" style="fill:#575656;fill-rule:nonzero;"/><path d="M38.682,176.016c-3.073,2.783 -9.959,3.71 -13.823,2.434c-4.332,-1.421 -5.293,-5.439 -3.217,-9.337c1.567,-2.953 3.447,-1.515 5.66,-1.149c3.081,0.51 17.9,2.136 11.38,8.052" style="fill:#2b2b2b;fill-rule:nonzero;"/><path d="M144.493,241.053c-2.787,7.034 -11.469,9.297 -18.187,6.988l0.52,-1.048c1.872,-1.092 6.295,-7.907 7.778,-8.333c2.073,-0.596 7.306,2.88 9.889,2.393" style="fill:#1e1e1e;fill-rule:nonzero;"/><path d="M164.786,106.589c-4.568,-5.91 5.9,-11.666 10.759,-12.324c4.961,-0.672 16.868,-0.305 16.501,7.031c-0.462,9.326 -22.26,11.763 -27.26,5.293m-18.108,-22.116c-1.382,-3.431 -1.085,-6.74 -1.998,-9.895c-0.676,-2.342 -4.622,-5.85 -2.448,-8.367c0.396,-0.463 1.776,-1.005 2.234,-0.683c0.269,0.186 0.743,3.753 1.292,3.844c4.604,-1.081 8.906,-3.077 13.43,-4.397c3.33,-0.973 17.061,-4.373 19.589,-3.151c1.729,0.836 0.423,2.941 0.343,4.212c-0.21,3.399 2.783,5.951 3.165,9.071c2.58,21.087 -28.545,26.899 -35.607,9.366m73.545,61.811c-3.067,-7.663 -8.067,-14.294 -13.787,-20.159c6.83,-8.714 13.941,-19.098 16.329,-30.117c2.99,-13.808 -0.407,-35.469 -9.419,-46.711c-1.26,-1.576 -4.95,-3.487 -5.128,-4.684c-0.435,-2.886 6.739,-5.371 7.818,-8.161c0.381,-0.985 -0.732,-2.07 -1.58,-2.427c-2.076,-0.879 -6.105,-0.57 -8.395,-0.7c-0.136,-2.64 2.087,-4.979 2.419,-7.549c0.13,-1.001 0.354,-2.391 -0.851,-2.604c-1.673,-0.294 -5.304,2.062 -7.429,2.37c-8.896,1.278 -20.541,-4.8 -29.686,-6.162c-9.614,-1.436 -29.689,-0.942 -38.613,2.756c-18.585,4.855 -36.72,17.116 -42.69,36.18c-1.796,5.735 -1.796,12.52 -4.124,17.911c-2.251,5.22 -7.758,9.615 -9.267,15.213c-0.949,3.522 -0.596,7.202 -0.239,10.78c1.93,0.445 2.119,-1.352 2.798,-2.101c0.896,-0.987 1.827,-1.068 2.1,-2.797c0.018,-0.113 -0.014,-0.235 0,-0.351c-0.836,-0.437 -1.424,-1.228 -1.75,-2.096c-0.763,-2.039 0.151,-3.586 1.75,-4.898c0.515,-0.42 0.925,-0.452 1.398,-0.697c3.942,-2.038 8.175,-1.594 12.243,-0c-0.718,-1.642 -2.202,-2.889 -2.972,-4.548c-1.832,-3.967 -2.206,-10.749 -0.894,-14.88c0.61,-1.915 3.73,-5.472 0.368,-5.753c0.399,-1.067 0.676,-1.547 1.051,-2.447c5.605,-0.553 10.846,1.884 15.625,4.486c1.005,0.545 5.042,3.465 5.598,3.522c1.328,0.129 1.52,-5.032 4.317,-3.642c2.262,1.128 -1.26,8.546 -0.7,10.672c6.831,-1.874 14.541,-1.649 20.1,3.158c4.786,4.138 11.501,16.16 10.651,22.515c-0.827,6.166 -7.826,11.722 -13.14,14.141c-1.173,0.536 -6.19,1.905 -6.404,2.167c-1.194,1.45 2.324,2.23 3.214,2.525c10.567,3.497 21.941,4.229 32.897,5.931c1.859,0.42 2.223,2.979 2.366,4.628c0.809,9.492 -1.022,19.68 -0.711,29.213c0.365,0.375 2.64,-0.983 3.117,-1.253c5.062,-2.829 11.115,-7.993 14.9,-12.38c1.439,-1.67 4.555,-7.079 6.701,-7.3c1.671,-0.171 1.38,2.087 0.749,3.211c-5.688,10.192 -20.53,21.052 -30.942,26.066c-4.913,2.366 -22.663,7.786 -24.96,11.067c-3.189,4.555 6.75,5.997 9.604,6.133c3.449,0.165 7.132,-0.777 10.524,-0.381c3.169,0.367 -0.878,3.336 -2.132,3.876c-4.863,-0.602 -9.789,-0.547 -14.67,-0.715c-0.854,-0.031 -2.92,-0.879 -3.525,-0.021c-1.568,4.982 8.255,9.162 11.904,9.478c4.064,0.354 9.05,-0.529 12.974,-0.032c2.186,0.281 3.512,3.683 -0.052,4.184c-4.688,0.659 -10.461,-0.354 -15.184,-0.665c8.826,8.679 23.272,5.325 34.107,2.783l0.726,0.344c0.542,1.621 -0.697,2.731 -1.601,3.865c-1.456,0.185 -2.734,0.945 -4.18,1.242c-1.978,0.406 -4.611,0.47 -6.484,1.209c-2.521,0.99 0.946,1.638 2.1,1.74c16.439,1.453 36.5,-5.806 46.216,-19.534c1.116,-1.578 4.373,-9.141 5.902,-9.148c2.581,-0.01 0.669,5.322 0.008,6.663c-8.004,16.252 -36.577,30.089 -54.068,25.012c-3.015,-0.875 -5.004,-2.157 -6.873,-4.671c-1.87,0.252 -6.428,-1.228 -7.923,-0.707c-0.77,0.266 -5.595,10.986 -6.736,12.853c-2.02,3.305 -6.957,8.658 -8.158,11.781c-0.234,0.609 0.133,0.423 0.409,0.56c1.678,0.819 4.003,1.4 5.855,1.677c5.552,0.823 10.573,-0.091 15.923,-0.028c0.959,0.014 4.355,0.469 5.15,0.82c1.883,0.832 4.226,5.22 5.685,6.904c4.062,4.695 8.936,6.722 15.22,5.941c8.476,-1.054 10.22,-10.388 13.336,-16.217c2.251,-4.212 6.043,-4.142 9.722,-6.718c21.196,-14.852 19.974,-60.878 11.393,-82.323" style="fill:#2b2b2b;fill-rule:nonzero;"/><path d="M96.539,96.947c-1.235,0.872 -5.5,-4.53 -7.845,-4.482c-2.025,0.039 -5.802,4.709 -8.214,4.857c0.017,-0.112 -0.014,-0.235 -0,-0.35c-0.837,-0.438 -1.425,-1.229 -1.751,-2.098c-0.763,-2.037 0.15,-3.585 1.751,-4.898c0.514,-0.42 0.924,-0.451 1.396,-0.697c3.943,-2.037 8.176,-1.592 12.244,0c1.009,0.393 3.487,1.653 3.791,2.7c0.204,0.711 -1.011,4.712 -1.372,4.968" style="fill:#e26660;fill-rule:nonzero;"/><path d="M38.792,186.263c-2.834,3.788 -7.558,4.579 -11.839,3.03c-0.493,-0.178 -0.944,-0.374 -1.361,-0.57c-0.418,-0.204 -0.792,-0.426 -1.133,-0.655c-1.021,-0.69 -1.719,-1.524 -2.162,-2.537c-0.076,-0.17 -0.144,-0.349 -0.204,-0.527c-0.119,-0.358 -0.213,-0.741 -0.281,-1.15c-0.068,-0.4 -0.111,-0.825 -0.128,-1.285c-0.008,-0.204 -0.017,-0.425 -0.017,-0.646c-0.008,-0.434 0.009,-0.886 0.044,-1.371c0.289,-0.298 3.582,1.268 4.195,1.396c1.881,0.409 4.886,0.502 6.818,0.349c1.481,-0.119 6.826,-1.753 7.549,-1.242c1.192,0.842 -0.808,4.306 -1.481,5.208" style="fill:#2b2b2b;fill-rule:nonzero;"/><path d="M103.755,74.939c-0.69,1.442 -5.231,1.075 -5.451,1.978c-1.002,4.093 3.217,5.665 4.583,7.972c0.651,1.099 -0.326,3.067 -1.219,3.712c-2.23,1.613 -5.654,-2.15 -6.148,-4.219c-2.857,-2.5 -3.763,-6.978 -3.452,-10.619c0.288,-3.365 2.378,-9.391 6.6,-8.263c0.459,0.123 1.057,-0.126 1.397,0.539c-1.015,2.259 -1.898,4.058 0.584,5.696c1.251,0.827 4.191,0.922 3.106,3.204" style="fill:#d0d0d0;fill-rule:nonzero;"/><path d="M39.201,191.047c-0.392,3.6 -3.209,8.281 -7.234,8.375c-0.478,0.017 -0.665,-0.238 -0.767,-0.315c-0.017,-0.017 -0.025,-0.026 -0.042,-0.026c-0.469,-0.093 -0.92,-0.221 -1.337,-0.4c-0.212,-0.085 -0.417,-0.179 -0.612,-0.289c-0.205,-0.103 -0.392,-0.221 -0.579,-0.341c-0.196,-0.127 -0.374,-0.263 -0.553,-0.417c-0.025,-0.017 -0.052,-0.042 -0.077,-0.059c-0.17,-0.145 -0.34,-0.307 -0.493,-0.468c-0.154,-0.162 -0.299,-0.324 -0.443,-0.503c-0.034,-0.051 -0.077,-0.093 -0.111,-0.145c-0.119,-0.161 -0.238,-0.331 -0.349,-0.51c-0.068,-0.102 -0.127,-0.213 -0.187,-0.315c-0.162,-0.289 -0.306,-0.595 -0.434,-0.919c-0.06,-0.153 -0.111,-0.307 -0.162,-0.459c-0.06,-0.196 -0.111,-0.384 -0.153,-0.579c-0.051,-0.179 -0.085,-0.358 -0.111,-0.537c0.477,-0.008 0.928,0.043 1.371,0.103c0.272,0.042 0.545,0.085 0.825,0.127c0.417,0.06 0.851,0.111 1.303,0.119c3.787,0.077 6.723,-0.987 10.145,-2.442" style="fill:#2b2b2b;fill-rule:nonzero;"/><path d="M31.2,199.107c-0.017,-0.009 -0.025,-0.017 -0.042,-0.017l-0,-0.009c0.017,0 0.025,0.009 0.042,0.026" style="fill:#2b2b2b;fill-rule:nonzero;"/><path d="M31.158,199.081l-0,0.009c-0.468,-0.094 -0.911,-0.23 -1.337,-0.409c0.418,0.179 0.869,0.307 1.337,0.4" style="fill:#686767;fill-rule:nonzero;"/><path d="M153.422,87.872c-4.016,-3.396 -8.49,-12.699 -2.682,-16.305c1.432,-0.885 7.478,-2.52 8.724,-1.796c0.137,0.081 0.393,0.84 0.754,1.16c3.994,3.542 6.235,4.06 -0.708,6.329c1.285,8.284 9.79,9.849 16.466,6.425c-2.916,9.257 -15.892,9.82 -22.554,4.187m28.863,-12.765c-0.381,-3.12 -3.375,-5.672 -3.165,-9.071c0.08,-1.271 1.386,-3.375 -0.343,-4.212c-2.528,-1.222 -16.259,2.177 -19.589,3.151c-4.524,1.32 -8.826,3.315 -13.43,4.397c-0.55,-0.091 -1.022,-3.658 -1.292,-3.844c-0.459,-0.322 -1.838,0.221 -2.234,0.683c-2.174,2.517 1.772,6.025 2.448,8.367c0.913,3.155 0.616,6.464 1.998,9.895c7.062,17.533 38.187,11.721 35.607,-9.366" style="fill:#0c0d0e;fill-rule:nonzero;"/><path d="M192.046,101.295c-0.462,9.328 -22.26,11.764 -27.259,5.294c-4.57,-5.909 5.899,-11.665 10.758,-12.324c4.961,-0.672 16.869,-0.304 16.501,7.03" style="fill:#e26660;fill-rule:nonzero;"/><path d="M114.846,185.352l0,0.009c0.009,-0.009 0.017,-0.017 0.034,-0.026c-0.008,0.009 -0.025,0.009 -0.034,0.017" style="fill:#0c0d0e;fill-rule:nonzero;"/><path d="M159.465,69.773c0.134,0.078 0.39,0.838 0.752,1.158c3.997,3.543 6.235,4.06 -0.709,6.328c1.287,8.284 9.791,9.848 16.468,6.426c-2.918,9.258 -15.893,9.822 -22.553,4.187c-4.016,-3.397 -8.491,-12.699 -2.682,-16.304c1.43,-0.887 7.478,-2.521 8.724,-1.795" style="fill:#d0d0d0;fill-rule:nonzero;"/><path d="M114.88,185.335c-0.017,0.009 -0.025,0.017 -0.034,0.026l0,-0.009c0.009,-0.008 0.026,-0.008 0.034,-0.017" style="fill:#dba380;fill-rule:nonzero;"/><path d="M66.802,212.096c0.089,0.219 -0.015,0.612 0.299,0.808l47.585,0.171c3.433,0.053 0.939,-6.893 0.228,-8.911c-3.183,-9.035 -12.134,-16.435 -21.858,-17.041c-12.587,-0.786 -23.795,8.997 -26.11,21.115c-0.241,1.258 -0.592,2.756 -0.144,3.858m21.386,-27.441c13.209,-1.347 26.027,7.232 29.75,20.007c0.815,2.796 2.58,10.267 -1.688,10.937c-1.22,0.191 -3.724,0.291 -5.091,0.352c-9.659,0.431 -19.512,-0.174 -29.136,-0.346c-4.506,-0.081 -10.882,0.594 -15.075,0.027c-5.849,-0.792 -1.616,-12.488 0,-15.717c3.853,-7.698 12.538,-14.373 21.24,-15.26" style="fill:#0d0f11;fill-rule:nonzero;"/><path d="M90.495,153.825c-12.578,1.359 -17.376,16.766 -7.368,24.817c1.572,1.264 4.696,2.914 6.727,2.717c5.343,1.23 11.167,-2.26 13.822,-6.83c5.575,-9.593 -2.296,-21.881 -13.181,-20.704m-1.67,-2.471c16.882,-2.142 26.147,18.264 13.52,28.889c-11.29,9.5 -28.48,0.826 -27.213,-14.087c0.591,-6.963 6.662,-13.91 13.693,-14.802" style="fill:#0d0f11;fill-rule:nonzero;"/><path d="M93.056,187.122l7.145,3.902c6.253,4.421 10.232,12.42 9.826,20.113l-43.225,0.958c-0.448,-1.101 -0.097,-2.598 0.144,-3.858c2.315,-12.117 13.523,-21.899 26.11,-21.115" style="fill:#a3a3a2;fill-rule:nonzero;"/><path d="M66.802,212.096l43.225,-0.959c0.406,-7.693 -3.573,-15.692 -9.826,-20.113l-7.145,-3.901c9.724,0.606 18.675,8.006 21.858,17.041c0.711,2.018 3.205,8.964 -0.228,8.911l-47.585,-0.171c-0.314,-0.196 -0.21,-0.589 -0.299,-0.808" style="fill:#3e3d3d;fill-rule:nonzero;"/><path d="M90.495,153.825c3.082,1.342 5.928,2.871 7.885,5.722c5.278,7.689 1.168,20.874 -8.526,21.812c-2.031,0.197 -5.155,-1.453 -6.727,-2.717c-10.008,-8.051 -5.21,-23.458 7.368,-24.817" style="fill:#a3a3a2;fill-rule:nonzero;"/><path d="M89.855,181.359c9.694,-0.939 13.803,-14.123 8.525,-21.812c-1.957,-2.851 -4.803,-4.381 -7.885,-5.722c10.884,-1.177 18.756,11.111 13.181,20.705c-2.655,4.568 -8.479,8.058 -13.821,6.829" style="fill:#3e3d3d;fill-rule:nonzero;"/><path d="M69.661,208.307c-0.123,0.077 -0.247,0.146 -0.37,0.223c0.131,-0.046 0.27,-0.1 0.409,-0.154l-0.039,-0.069Z" style="fill:#f8f8f7;fill-rule:nonzero;"/><path d="M78.695,203.782c0.948,-0.594 1.873,-1.218 2.775,-1.858c-0.902,0.64 -1.827,1.257 -2.775,1.858" style="fill:#0f0f0e;fill-rule:nonzero;"/></g></svg>